<?xml version="1.0" encoding="utf-8"?>
<!DOCTYPE svg PUBLIC "-//W3C//DTD SVG 1.1//EN" "http://www.w3.org/Graphics/SVG/1.1/DTD/svg11.dtd" [
<!ENTITY ns_svg "http://www.w3.org/2000/svg">
<!ENTITY ns_xlink "http://www.w3.org/1999/xlink">
]>
<svg  version="1.1" id="Layer_1" xmlns="&ns_svg;" xmlns:xlink="&ns_xlink;" width="149.032" height="175.573"
viewBox="0 0 149.032 175.573" overflow="visible" enable-background="new 0 0 149.032 175.573" xml:space="preserve">
<g>
<path fill-rule="evenodd" clip-rule="evenodd" fill="#FE1108" d="M0,31.792L17.694,14.17l20.859,21.074
c2.877,3.237,0.719,6.401-1.51,11.652l1.51,2.229l-3.668,3.668l-2.014-1.942c-6.33,3.021-10.573,3.596-12.372,1.366
C20.499,52.219,0,31.504,0,31.792L0,31.792z"/>
<polygon fill-rule="evenodd" clip-rule="evenodd" fill="#FFFFFF" points="22.801,36.898 29.994,46.393 28.986,48.695 
31.576,47.256 35.46,49.558 33.158,45.817 34.885,43.228 32.151,44.523 22.801,36.898 	"/>
<path fill-rule="evenodd" clip-rule="evenodd" fill="#FFFFFF" d="M5.754,35.46l15.608,15.968c2.158,1.367,4.244,1.223,6.33-0.432
c-1.726,0.576-3.596,0.36-5.323-0.575L6.186,34.741L5.754,35.46L5.754,35.46z"/>
<path fill-rule="evenodd" clip-rule="evenodd" fill="#FE1108" d="M149.032,33.086l-17.766-17.622l-20.787,21.075
c-2.948,3.236-0.719,6.401,1.438,11.652l-1.438,2.23l3.669,3.668l1.941-1.942c6.402,3.021,10.645,3.596,12.443,1.367
C128.533,53.514,149.032,32.799,149.032,33.086L149.032,33.086z"/>
<polygon fill-rule="evenodd" clip-rule="evenodd" fill="#FFFFFF" points="126.16,38.193 119.039,47.688 120.046,49.989 
117.457,48.551 113.572,50.853 115.874,47.112 114.148,44.523 116.881,45.817 126.16,38.193 	"/>
<path fill-rule="evenodd" clip-rule="evenodd" fill="#FFFFFF" d="M143.207,36.755l-15.609,15.967
c-2.085,1.367-4.172,1.223-6.257-0.431c1.726,0.575,3.524,0.359,5.251-0.576l16.184-15.68L143.207,36.755L143.207,36.755z"/>
<path fill-rule="evenodd" clip-rule="evenodd" fill="#FE1108" d="M75.379,0c6.618,0,12.012,5.395,12.012,12.012
c0,6.618-5.394,12.012-12.012,12.012c-6.617,0-12.011-5.394-12.011-12.012C63.368,5.395,68.762,0,75.379,0L75.379,0z"/>
<path fill-rule="evenodd" clip-rule="evenodd" fill="#FFFFFF" d="M75.379,6.33c3.021,0,5.467,2.446,5.467,5.466
c0,3.021-2.445,5.467-5.467,5.467c-3.021,0-5.466-2.446-5.466-5.467C69.913,8.775,72.358,6.33,75.379,6.33L75.379,6.33z"/>
<path fill-rule="evenodd" clip-rule="evenodd" fill="#FE1108" d="M67.971,21.506c-3.74,0.575-7.408,1.654-11.077,3.524v9.638
c1.654,1.223,3.524,1.798,5.466,2.014c8.847-2.014,17.694-1.87,26.613,0.36c1.366-0.216,2.733-0.792,4.1-1.726l0.072-10.214
c-3.524-1.798-7.049-3.021-10.646-3.813L67.971,21.506L67.971,21.506z"/>
<path fill-rule="evenodd" clip-rule="evenodd" fill="#FFFFFF" d="M59.556,28.699c0.719-0.936,1.51-1.727,2.302-2.302l27.116,0.072
c1.007,0.432,1.87,1.367,2.589,2.733c0.504-1.582-0.646-2.877-2.445-3.812l-27.26-0.144C59.699,26.253,59.052,27.404,59.556,28.699
L59.556,28.699z"/>
<path fill-rule="evenodd" clip-rule="evenodd" fill="#FFFFFF" d="M59.556,31c0.431,0.935,1.294,1.654,2.445,1.942h7.912
l-0.216,1.223l-8.056-0.072C58.98,33.446,59.34,31.864,59.556,31L59.556,31z"/>
<path fill-rule="evenodd" clip-rule="evenodd" fill="#FFFFFF" d="M91.203,31c-0.504,0.935-1.295,1.654-2.518,1.942h-7.912
l0.288,1.223l8.056-0.072C91.778,33.374,91.348,31.864,91.203,31L91.203,31z"/>

<path fill-rule="evenodd" clip-rule="evenodd" fill="#FFFFFF" stroke="#000000" stroke-width="3.9999" stroke-linecap="round" stroke-linejoin="round" stroke-miterlimit="2.6131" d="
M74.732,40.495c27.26,0,49.486,22.225,49.486,49.486c0,27.26-22.226,49.484-49.486,49.484s-49.485-22.225-49.485-49.484
C25.247,62.72,47.472,40.495,74.732,40.495L74.732,40.495z"/>
<path fill-rule="evenodd" clip-rule="evenodd" d="M74.444,42.137c26.208,0,47.554,21.422,47.554,47.63
s-21.346,47.555-47.554,47.555s-47.554-21.347-47.554-47.555S48.236,42.137,74.444,42.137L74.444,42.137z"/>
<path fill-rule="evenodd" clip-rule="evenodd" fill="#FFFFFF" d="M74.804,57.613c17.838,0,32.438,14.529,32.438,32.439
c0,17.838-14.601,32.366-32.438,32.366c-17.837,0-32.367-14.528-32.367-32.366C42.437,72.143,56.966,57.613,74.804,57.613
L74.804,57.613z"/>
<path fill-rule="evenodd" clip-rule="evenodd" fill="#FE1108" d="M7.768,101.561L7.48,123.067l4.747,0.935
c8.271,21.218,23.017,33.302,50.924,41.142c5.826,3.021,9.494,6.546,11.005,10.43c1.942-4.604,5.466-7.983,10.717-10.142
c23.808-7.337,40.998-15.608,51.644-40.782l5.609-0.936l-0.935-22.153l-13.81,16.112l2.805,4.172
c-11.652,20.066-27.404,26.325-44.954,26.182l-4.747-4.389c-4.316,1.87-8.631,1.654-12.875-0.647l-3.812,4.747
c-22.657,0-36.898-9.998-45.314-26.9l3.165-3.164L7.768,101.561L7.768,101.561z"/>
<path fill-rule="evenodd" clip-rule="evenodd" d="M74.157,35.244L74.157,35.244c15.033,0,28.699,6.114,38.625,16.04
c9.854,9.926,16.039,23.592,16.039,38.625l0,0l0,0c0,15.031-6.186,28.697-16.039,38.625c-9.926,9.926-23.592,16.039-38.625,16.039
l0,0l0,0c-15.104,0-28.771-6.113-38.625-16.039c-9.926-9.928-16.04-23.594-16.04-38.625l0,0l0,0
c0-15.033,6.114-28.699,16.04-38.625C45.386,41.358,59.052,35.244,74.157,35.244L74.157,35.244L74.157,35.244z M74.157,36.395
L74.157,36.395L74.157,36.395c-14.745,0-28.124,5.97-37.833,15.68c-9.71,9.71-15.68,23.088-15.68,37.834l0,0l0,0
c0,14.744,5.97,28.123,15.68,37.833c9.71,9.71,23.088,15.68,37.833,15.68l0,0l0,0c14.745,0,28.124-5.97,37.833-15.68
c9.639-9.71,15.68-23.089,15.68-37.833l0,0l0,0c0-14.746-6.041-28.124-15.68-37.834C102.28,42.365,88.901,36.395,74.157,36.395
L74.157,36.395z"/>
<path fill-rule="evenodd" clip-rule="evenodd" fill="#FFFFFF" d="M70.488,145.867h0.36c0.791,0,1.51-0.575,1.51-1.366v-7.912
c0-0.719-0.719-1.295-1.51-1.295h-0.36c-0.791,0-1.511,0.576-1.511,1.295v7.912C68.978,145.292,69.697,145.867,70.488,145.867
L70.488,145.867z"/>
<path fill-rule="evenodd" clip-rule="evenodd" d="M70.488,145.364h0.36l0,0c0.288,0,0.575-0.072,0.719-0.215
c0.216-0.217,0.288-0.361,0.288-0.648l0,0v-7.912l0,0c0-0.216-0.072-0.432-0.288-0.575c-0.144-0.144-0.432-0.288-0.719-0.288l0,0
h-0.36l0,0c-0.288,0-0.575,0.145-0.719,0.288c-0.216,0.144-0.288,0.359-0.288,0.575l0,0v7.912l0,0c0,0.287,0.072,0.432,0.288,0.648
C69.913,145.292,70.201,145.364,70.488,145.364L70.488,145.364L70.488,145.364z M70.848,146.3h-0.36l0,0
c-0.503,0-1.007-0.145-1.367-0.504c-0.359-0.288-0.575-0.791-0.575-1.295l0,0v-7.912l0,0c0-0.503,0.216-0.935,0.575-1.295
c0.36-0.287,0.863-0.503,1.367-0.503l0,0h0.36l0,0c0.503,0,1.007,0.216,1.367,0.503c0.359,0.36,0.575,0.792,0.575,1.295l0,0v7.912
l0,0c0,0.504-0.216,1.007-0.575,1.295C71.855,146.155,71.352,146.3,70.848,146.3L70.848,146.3L70.848,146.3z"/>
<path fill-rule="evenodd" clip-rule="evenodd" fill="#FFFFFF" d="M73.941,145.867H74.3c0.792,0,1.51-0.575,1.51-1.366v-7.912
c0-0.719-0.719-1.295-1.51-1.295h-0.359c-0.792,0-1.51,0.576-1.51,1.295v7.912C72.431,145.292,73.149,145.867,73.941,145.867
L73.941,145.867z"/>
<path fill-rule="evenodd" clip-rule="evenodd" d="M73.941,145.364H74.3l0,0c0.288,0,0.576-0.072,0.719-0.215
c0.216-0.217,0.288-0.361,0.288-0.648l0,0v-7.912l0,0c0-0.216-0.072-0.432-0.288-0.575c-0.144-0.144-0.431-0.288-0.719-0.288l0,0
h-0.359l0,0c-0.288,0-0.504,0.145-0.719,0.288c-0.216,0.144-0.288,0.359-0.288,0.575l0,0v7.912l0,0
c0,0.287,0.072,0.432,0.288,0.648C73.437,145.292,73.653,145.364,73.941,145.364L73.941,145.364L73.941,145.364z M74.3,146.3
h-0.359l0,0c-0.504,0-1.007-0.145-1.367-0.504c-0.359-0.288-0.575-0.791-0.575-1.295l0,0v-7.912l0,0
c0-0.503,0.216-0.935,0.575-1.295c0.36-0.287,0.863-0.503,1.367-0.503l0,0H74.3l0,0c0.503,0,1.007,0.216,1.367,0.503
c0.36,0.36,0.575,0.792,0.575,1.295l0,0v7.912l0,0c0,0.504-0.215,1.007-0.575,1.295C75.308,146.155,74.804,146.3,74.3,146.3
L74.3,146.3L74.3,146.3z"/>
<path fill-rule="evenodd" clip-rule="evenodd" fill="#FFFFFF" d="M77.537,145.867h0.359c0.791,0,1.511-0.575,1.511-1.366v-7.912
c0-0.719-0.72-1.295-1.511-1.295h-0.359c-0.791,0-1.51,0.576-1.51,1.295v7.912C76.027,145.292,76.746,145.867,77.537,145.867
L77.537,145.867z"/>
<path fill-rule="evenodd" clip-rule="evenodd" d="M77.537,145.364h0.359l0,0c0.288,0,0.576-0.072,0.72-0.215
c0.216-0.217,0.288-0.361,0.288-0.648l0,0v-7.912l0,0c0-0.216-0.072-0.432-0.288-0.575c-0.144-0.144-0.432-0.288-0.72-0.288l0,0
h-0.359l0,0c-0.287,0-0.576,0.145-0.719,0.288c-0.217,0.144-0.288,0.359-0.288,0.575l0,0v7.912l0,0
c0,0.287,0.071,0.432,0.288,0.648C76.961,145.292,77.25,145.364,77.537,145.364L77.537,145.364L77.537,145.364z M77.896,146.3
h-0.359l0,0c-0.504,0-1.007-0.145-1.367-0.504c-0.359-0.288-0.574-0.791-0.574-1.295l0,0v-7.912l0,0
c0-0.503,0.215-0.935,0.574-1.295c0.36-0.287,0.863-0.503,1.367-0.503l0,0h0.359l0,0c0.504,0,1.008,0.216,1.367,0.503
c0.359,0.36,0.575,0.792,0.575,1.295l0,0v7.912l0,0c0,0.504-0.216,1.007-0.575,1.295C78.904,146.155,78.4,146.3,77.896,146.3
L77.896,146.3L77.896,146.3z"/>
<path fill-rule="evenodd" clip-rule="evenodd" fill="#FFFFFF" d="M121.125,85.809v0.288c0,0.863,0.646,1.51,1.51,1.582h8.703
c0.791,0,1.439-0.719,1.439-1.51v-0.36c0-0.791-0.648-1.51-1.439-1.51h-8.703C121.844,84.298,121.125,84.946,121.125,85.809
L121.125,85.809z"/>
<path fill-rule="evenodd" clip-rule="evenodd" d="M121.629,85.809v0.288c0,0.144,0,0.216,0,0.216
c0.071,0.216,0.143,0.432,0.287,0.575c0.144,0.144,0.288,0.216,0.504,0.288c0.072,0,0.143,0,0.215,0h8.703c0.072,0,0.072,0,0.145,0
s0.144-0.072,0.216-0.072c0.071,0,0.144-0.072,0.144-0.072c0.287-0.216,0.432-0.503,0.432-0.863v-0.36c0-0.072,0-0.144,0-0.215
c-0.072-0.216-0.145-0.36-0.287-0.504c-0.145-0.144-0.288-0.216-0.504-0.288c-0.072,0-0.072,0-0.145,0h-8.703
c-0.072,0-0.143,0-0.215,0s-0.145,0-0.216,0.072c-0.072,0-0.072,0.072-0.145,0.072C121.771,85.162,121.629,85.449,121.629,85.809
L121.629,85.809z M120.693,86.097v-0.288c0-0.647,0.287-1.223,0.791-1.582c0.072-0.072,0.216-0.144,0.359-0.216
c0.145-0.072,0.216-0.072,0.36-0.144c0.144,0,0.288,0,0.431,0h8.703c0.145,0,0.217,0,0.36,0c0.359,0.072,0.72,0.288,1.007,0.576
c0.215,0.288,0.432,0.575,0.504,1.007c0,0.144,0,0.216,0,0.359v0.36c0,0.647-0.289,1.223-0.791,1.583
c-0.072,0.072-0.217,0.144-0.36,0.215c-0.071,0.072-0.216,0.072-0.359,0.144c-0.144,0-0.288,0-0.36,0h-8.703
c-0.143,0-0.287,0-0.431-0.072c-0.36-0.072-0.72-0.216-0.936-0.503c-0.288-0.288-0.503-0.647-0.575-1.007
C120.693,86.384,120.693,86.24,120.693,86.097L120.693,86.097z"/>
<path fill-rule="evenodd" clip-rule="evenodd" fill="#FFFFFF" d="M121.125,89.261v0.359c0,0.792,0.646,1.512,1.438,1.512h8.704
c0.862,0,1.511-0.72,1.511-1.512v-0.359c0-0.791-0.648-1.51-1.439-1.51h-8.775C121.771,87.751,121.125,88.47,121.125,89.261
L121.125,89.261z"/>
<path fill-rule="evenodd" clip-rule="evenodd" d="M121.629,89.261v0.359c0,0.072,0,0.145,0,0.217
c0.071,0.145,0.143,0.359,0.287,0.503c0.144,0.145,0.288,0.216,0.504,0.288c0.072,0,0.072,0,0.143,0h8.704c0.071,0,0.144,0,0.216,0
s0.144,0,0.216-0.072c0.071,0,0.144-0.071,0.144-0.071c0.287-0.216,0.432-0.503,0.432-0.864v-0.359c0-0.071,0-0.144,0-0.215
c-0.072-0.145-0.145-0.359-0.287-0.504l0,0c-0.145-0.145-0.288-0.215-0.504-0.287c-0.072,0-0.145,0-0.145,0h-8.775
c0,0-0.07,0-0.143,0s-0.145,0.072-0.216,0.072c-0.072,0-0.145,0.07-0.145,0.07C121.771,88.614,121.629,88.901,121.629,89.261
L121.629,89.261z M120.693,89.62v-0.359c0-0.646,0.287-1.222,0.791-1.582c0.072-0.072,0.216-0.144,0.359-0.216
c0.072-0.072,0.216-0.072,0.36-0.144c0.144,0,0.288,0,0.358,0h8.775c0.072,0,0.217,0,0.36,0c0.359,0.144,0.72,0.288,0.935,0.575
h0.072c0.215,0.288,0.432,0.647,0.504,1.007c0,0.145,0,0.288,0,0.359v0.359c0,0.648-0.289,1.223-0.791,1.584
c-0.072,0.071-0.217,0.143-0.36,0.215c-0.071,0.072-0.216,0.072-0.359,0.145c-0.144,0-0.288,0-0.432,0h-8.704
c-0.07,0-0.215,0-0.358,0c-0.36-0.145-0.72-0.288-1.007-0.576c-0.217-0.288-0.432-0.647-0.504-1.006
C120.693,89.837,120.693,89.692,120.693,89.62L120.693,89.62z"/>
<path fill-rule="evenodd" clip-rule="evenodd" fill="#FFFFFF" d="M121.125,92.858v0.358c0,0.792,0.646,1.511,1.438,1.511h8.704
c0.791,0,1.511-0.719,1.511-1.511v-0.358c0-0.792-0.648-1.512-1.511-1.512h-8.704C121.771,91.347,121.125,92.066,121.125,92.858
L121.125,92.858z"/>
<path fill-rule="evenodd" clip-rule="evenodd" d="M121.629,92.858v0.358c0,0.072,0,0.145,0,0.216
c0.071,0.145,0.143,0.359,0.287,0.504l0,0c0.144,0.145,0.288,0.216,0.432,0.288c0.072,0,0.145,0,0.215,0h8.704
c0.071,0,0.144,0,0.216,0s0.144-0.072,0.216-0.072c0.071,0,0.071-0.071,0.144-0.071c0.287-0.217,0.432-0.504,0.432-0.864v-0.358
c0-0.072,0-0.145,0-0.217c-0.072-0.215-0.145-0.359-0.287-0.504c-0.145-0.144-0.288-0.215-0.504-0.287c-0.072,0-0.145,0-0.216,0
h-8.704c-0.07,0-0.07,0-0.143,0s-0.145,0-0.216,0.072c-0.072,0-0.145,0.071-0.145,0.071
C121.771,92.21,121.629,92.497,121.629,92.858L121.629,92.858z M120.693,93.217v-0.358c0-0.648,0.287-1.224,0.791-1.583
c0.072-0.071,0.216-0.144,0.359-0.216c0.072-0.072,0.216-0.072,0.36-0.145c0.144,0,0.288,0,0.358,0h8.704c0.144,0,0.288,0,0.432,0
c0.359,0.072,0.72,0.289,0.935,0.576c0.287,0.287,0.504,0.646,0.576,1.006c0,0.145,0,0.217,0,0.361v0.358
c0,0.647-0.289,1.224-0.791,1.583c-0.072,0.071-0.217,0.144-0.36,0.215c-0.144,0.072-0.216,0.072-0.359,0.145
c-0.144,0-0.288,0-0.432,0h-8.704c-0.143,0-0.287,0-0.431-0.072c-0.36-0.072-0.647-0.287-0.935-0.503l0,0
c-0.217-0.288-0.432-0.575-0.504-1.007C120.693,93.433,120.693,93.289,120.693,93.217L120.693,93.217z"/>
<path fill-rule="evenodd" clip-rule="evenodd" fill="#FFFFFF" d="M16.399,85.305v0.288c0,0.863,0.647,1.51,1.438,1.51h8.703
c0.863,0,1.511-0.647,1.511-1.51v-0.288c0-0.863-0.647-1.51-1.439-1.51H17.91C17.047,83.795,16.399,84.442,16.399,85.305
L16.399,85.305z"/>
<path fill-rule="evenodd" clip-rule="evenodd" d="M16.903,85.305v0.288c0,0.072,0,0.144,0,0.215
c0.072,0.216,0.144,0.432,0.288,0.576l0,0c0.144,0.072,0.288,0.215,0.503,0.215c0,0.072,0.072,0.072,0.144,0.072h8.703
c0.072,0,0.144,0,0.216,0c0.072-0.072,0.144-0.072,0.216-0.072c0.072-0.071,0.144-0.071,0.144-0.144
c0.288-0.144,0.432-0.503,0.432-0.863v-0.288c0-0.072,0-0.144,0-0.216c-0.072-0.216-0.144-0.359-0.288-0.503
c-0.144-0.144-0.288-0.288-0.503-0.288c-0.072,0-0.072-0.072-0.144-0.072H17.91c-0.072,0-0.144,0-0.216,0.072
c-0.072,0-0.144,0-0.216,0c-0.072,0.072-0.144,0.072-0.144,0.144C17.047,84.658,16.903,84.946,16.903,85.305L16.903,85.305z
M15.968,85.593v-0.288c0-0.647,0.288-1.223,0.791-1.583c0.072-0.144,0.216-0.215,0.36-0.215c0.072-0.072,0.216-0.144,0.359-0.144
c0.144-0.072,0.288-0.072,0.432-0.072h8.703c0.072,0,0.216,0.072,0.36,0.072c0.36,0.072,0.719,0.288,1.007,0.575
c0.216,0.216,0.432,0.576,0.503,1.007c0,0.072,0,0.216,0,0.359v0.288c0,0.719-0.288,1.294-0.791,1.654
c-0.072,0.072-0.216,0.144-0.359,0.216c-0.072,0-0.216,0.072-0.36,0.072c-0.144,0.072-0.288,0.072-0.432,0.072h-8.703
c-0.144,0-0.216,0-0.36-0.072c-0.359-0.072-0.719-0.288-0.935-0.503h-0.072c-0.216-0.288-0.432-0.647-0.503-1.007
C15.968,85.881,15.968,85.737,15.968,85.593L15.968,85.593z"/>
<path fill-rule="evenodd" clip-rule="evenodd" fill="#FFFFFF" d="M16.399,88.758v0.288c0,0.863,0.647,1.51,1.438,1.51l8.703,0.072
c0.792,0,1.511-0.719,1.511-1.511v-0.359c0-0.792-0.647-1.511-1.511-1.511h-8.703C17.047,87.247,16.399,87.895,16.399,88.758
L16.399,88.758z"/>
<path fill-rule="evenodd" clip-rule="evenodd" d="M16.903,88.758v0.288c0,0.071,0,0.144,0,0.215
c0.072,0.217,0.144,0.432,0.288,0.576c0.144,0.145,0.288,0.216,0.503,0.288c0,0,0.072,0,0.144,0h8.703c0.072,0,0.144,0,0.216,0
s0.144-0.072,0.216-0.072s0.072-0.071,0.144-0.144c0.288-0.145,0.432-0.504,0.432-0.792v-0.359c0-0.071,0-0.144,0-0.216
c-0.072-0.215-0.144-0.359-0.288-0.503s-0.288-0.288-0.503-0.288c-0.072,0-0.144,0-0.216,0l-8.703-0.072
c-0.072,0-0.072,0.072-0.144,0.072c-0.072,0-0.144,0-0.216,0.072c-0.072,0-0.144,0-0.144,0.072
C17.047,88.11,16.903,88.397,16.903,88.758L16.903,88.758z M15.968,89.046v-0.288c0-0.647,0.288-1.223,0.791-1.583
c0.072-0.072,0.216-0.144,0.36-0.215c0.072-0.072,0.216-0.144,0.359-0.144c0.144,0,0.288-0.072,0.36-0.072l8.703,0.072
c0.144,0,0.288,0,0.432,0c0.36,0.072,0.719,0.288,0.935,0.575c0.288,0.288,0.503,0.575,0.575,1.006c0,0.145,0,0.217,0,0.36v0.359
c0,0.647-0.288,1.223-0.791,1.582c-0.072,0.072-0.216,0.144-0.359,0.216c-0.144,0.072-0.216,0.072-0.36,0.145
c-0.144,0-0.288,0-0.432,0h-8.703c-0.144,0-0.216,0-0.36-0.072c-0.359-0.072-0.719-0.288-1.007-0.503
c-0.216-0.288-0.432-0.647-0.503-1.007C15.968,89.333,15.968,89.189,15.968,89.046L15.968,89.046z"/>
<path fill-rule="evenodd" clip-rule="evenodd" fill="#FFFFFF" d="M16.399,92.354v0.287c0,0.863,0.647,1.511,1.438,1.511h8.703
c0.792,0,1.438-0.647,1.511-1.511v-0.287c0-0.863-0.719-1.512-1.511-1.512h-8.703C17.047,90.843,16.399,91.491,16.399,92.354
L16.399,92.354z"/>
<path fill-rule="evenodd" clip-rule="evenodd" d="M16.903,92.354v0.287c0,0.072,0,0.145,0,0.217c0,0.215,0.144,0.431,0.288,0.574
c0.144,0.145,0.288,0.217,0.503,0.217c0,0.07,0.072,0.07,0.144,0.07h8.703c0.072,0,0.144,0,0.216,0
c0.072-0.07,0.144-0.07,0.216-0.07c0.072-0.072,0.072-0.072,0.144-0.145c0.288-0.144,0.432-0.503,0.432-0.863v-0.287
c0-0.072,0-0.145,0-0.217c-0.072-0.215-0.144-0.359-0.288-0.503s-0.288-0.288-0.503-0.288c-0.072,0-0.144,0-0.216,0l-8.703-0.071
c-0.072,0-0.144,0-0.216,0.071c0,0-0.072,0-0.144,0.072c-0.072,0-0.144,0-0.215,0.072C17.047,91.707,16.903,91.994,16.903,92.354
L16.903,92.354z M15.968,92.642v-0.287c0-0.647,0.288-1.223,0.719-1.583c0.144-0.072,0.216-0.144,0.36-0.216
c0.144-0.071,0.288-0.144,0.431-0.144c0.072,0,0.216-0.072,0.36-0.072l8.703,0.072c0.144,0,0.288,0,0.432,0
c0.36,0.072,0.719,0.287,0.935,0.575c0.288,0.217,0.432,0.576,0.503,1.007c0.072,0.072,0.072,0.216,0.072,0.36v0.287
c0,0.72-0.288,1.295-0.791,1.654c-0.144,0.072-0.216,0.145-0.359,0.216c-0.144,0-0.216,0.072-0.36,0.072
c-0.144,0.071-0.288,0.071-0.432,0.071h-8.703c-0.144,0-0.216,0-0.36-0.071c-0.359-0.072-0.719-0.288-1.007-0.503
c-0.216-0.289-0.432-0.648-0.503-1.008C15.968,92.93,15.968,92.786,15.968,92.642L15.968,92.642z"/>
<path fill-rule="evenodd" clip-rule="evenodd" fill="#FFFFFF" d="M71.567,43.228h0.288c0.863,0,1.51-0.576,1.51-1.294v-7.768
c0-0.72-0.647-1.367-1.51-1.367h-0.288c-0.863,0-1.51,0.647-1.51,1.367v7.768C70.057,42.652,70.704,43.228,71.567,43.228
L71.567,43.228z"/>
<path fill-rule="evenodd" clip-rule="evenodd" d="M71.567,42.796h0.288l0,0c0.288,0,0.576-0.144,0.791-0.288
c0.144-0.144,0.288-0.359,0.288-0.575l0,0v-7.768l0,0c0-0.216-0.144-0.432-0.288-0.576c-0.215-0.216-0.503-0.288-0.791-0.288l0,0
h-0.288l0,0c-0.288,0-0.576,0.072-0.792,0.288c-0.144,0.144-0.288,0.36-0.288,0.576l0,0v7.768l0,0c0,0.216,0.144,0.432,0.288,0.575
C70.992,42.652,71.279,42.796,71.567,42.796L71.567,42.796L71.567,42.796z M71.855,43.731h-0.288l0,0
c-0.576,0-1.007-0.216-1.367-0.503c-0.432-0.359-0.647-0.791-0.647-1.294l0,0v-7.768l0,0c0-0.504,0.216-1.007,0.647-1.295
c0.359-0.288,0.791-0.503,1.367-0.503l0,0h0.288l0,0c0.576,0,1.007,0.216,1.367,0.503c0.359,0.288,0.647,0.791,0.647,1.295l0,0
v7.768l0,0c0,0.503-0.288,0.935-0.647,1.294C72.862,43.516,72.431,43.731,71.855,43.731L71.855,43.731L71.855,43.731z"/>
<path fill-rule="evenodd" clip-rule="evenodd" fill="#FFFFFF" d="M75.02,43.228h0.288c0.862,0,1.511-0.576,1.511-1.294v-7.768
c0-0.72-0.648-1.367-1.511-1.367H75.02c-0.863,0-1.51,0.647-1.51,1.367v7.768C73.509,42.652,74.157,43.228,75.02,43.228
L75.02,43.228z"/>
<path fill-rule="evenodd" clip-rule="evenodd" d="M75.02,42.796h0.288l0,0c0.359,0,0.575-0.144,0.791-0.288
c0.144-0.144,0.288-0.359,0.288-0.575l0,0v-7.768l0,0c0-0.216-0.145-0.432-0.288-0.576c-0.216-0.216-0.432-0.288-0.791-0.288l0,0
H75.02l0,0c-0.288,0-0.575,0.072-0.791,0.288c-0.144,0.144-0.288,0.36-0.288,0.576l0,0v7.768l0,0c0,0.216,0.144,0.432,0.288,0.575
C74.444,42.652,74.732,42.796,75.02,42.796L75.02,42.796L75.02,42.796z M75.308,43.731H75.02l0,0c-0.503,0-1.007-0.216-1.366-0.503
c-0.36-0.359-0.647-0.791-0.647-1.294l0,0v-7.768l0,0c0-0.504,0.288-1.007,0.647-1.295c0.359-0.288,0.863-0.503,1.366-0.503l0,0
h0.288l0,0c0.575,0,1.007,0.216,1.366,0.503c0.432,0.288,0.647,0.791,0.647,1.295l0,0v7.768l0,0c0,0.503-0.216,0.935-0.647,1.294
C76.314,43.516,75.883,43.731,75.308,43.731L75.308,43.731L75.308,43.731z"/>
<path fill-rule="evenodd" clip-rule="evenodd" fill="#FFFFFF" d="M78.616,43.228h0.288c0.863,0,1.51-0.576,1.51-1.294v-7.768
c0-0.72-0.646-1.367-1.51-1.367h-0.288c-0.863,0-1.511,0.647-1.511,1.367v7.768C77.105,42.652,77.753,43.228,78.616,43.228
L78.616,43.228z"/>
<path fill-rule="evenodd" clip-rule="evenodd" d="M78.616,42.796h0.288l0,0c0.287,0,0.575-0.144,0.791-0.288
c0.144-0.144,0.287-0.359,0.287-0.575l0,0v-7.768l0,0c0-0.216-0.144-0.432-0.287-0.576c-0.216-0.216-0.504-0.288-0.791-0.288l0,0
h-0.288l0,0c-0.288,0-0.575,0.072-0.791,0.288c-0.144,0.144-0.288,0.36-0.288,0.576l0,0v7.768l0,0c0,0.216,0.145,0.432,0.288,0.575
C78.041,42.652,78.328,42.796,78.616,42.796L78.616,42.796L78.616,42.796z M78.904,43.731h-0.288l0,0
c-0.575,0-1.007-0.216-1.366-0.503c-0.359-0.359-0.648-0.791-0.648-1.294l0,0v-7.768l0,0c0-0.504,0.289-1.007,0.648-1.295
s0.791-0.503,1.366-0.503l0,0h0.288l0,0c0.575,0,1.006,0.216,1.366,0.503c0.432,0.288,0.647,0.791,0.647,1.295l0,0v7.768l0,0
c0,0.503-0.216,0.935-0.647,1.294C79.91,43.516,79.479,43.731,78.904,43.731L78.904,43.731L78.904,43.731z"/>
<polygon fill-rule="evenodd" clip-rule="evenodd" fill="#FE1108" points="33.302,125.944 9.351,149.32 12.515,153.421 
36.754,129.685 33.302,125.944 	"/>
<polygon fill-rule="evenodd" clip-rule="evenodd" fill="#FFFFFF" points="35.172,128.534 28.915,134.862 27.908,133.856 
34.166,127.526 35.172,128.534 	"/>
<polygon fill-rule="evenodd" clip-rule="evenodd" fill="#FFFFFF" points="22.01,141.768 12.731,150.472 11.724,149.464 
21.003,140.761 22.01,141.768 	"/>
<polygon fill-rule="evenodd" clip-rule="evenodd" fill="#FE1108" points="115.299,125.296 139.25,148.745 136.086,152.845 
111.846,129.108 115.299,125.296 	"/>
<polygon fill-rule="evenodd" clip-rule="evenodd" fill="#FFFFFF" points="114.436,126.879 120.693,133.209 119.686,134.216 
113.429,127.886 114.436,126.879 	"/>
<polygon fill-rule="evenodd" clip-rule="evenodd" fill="#FFFFFF" points="127.598,140.113 136.877,148.816 135.87,149.896 
126.592,141.192 127.598,140.113 	"/>
<path fill-rule="evenodd" clip-rule="evenodd" fill="#00A0C6" d="M49.198,72.143c1.079,0,1.942,0.863,1.942,1.942
c0,1.007-0.863,1.871-1.942,1.871c-1.079,0-1.942-0.863-1.942-1.871C47.256,73.006,48.119,72.143,49.198,72.143L49.198,72.143z"/>
<polygon fill-rule="evenodd" clip-rule="evenodd" fill="#00A0C6" points="51.068,75.164 70.992,121.916 71.208,122.348 
70.704,122.275 67.396,121.772 67.251,121.772 67.18,121.628 48.767,76.099 51.068,75.164 	"/>
<polygon fill-rule="evenodd" clip-rule="evenodd" fill="#00A0C6" points="49.486,76.314 67.611,121.269 70.272,121.628 
50.78,75.739 49.486,76.314 	"/>
<polygon fill-rule="evenodd" clip-rule="evenodd" fill="#FF0000" points="50.637,79.479 52.291,78.832 54.089,83.004 
52.291,84.011 50.637,79.479 	"/>
<polygon fill-rule="evenodd" clip-rule="evenodd" fill="#FF0000" points="54.305,89.405 56.462,88.397 58.261,92.714 
56.103,94.081 54.305,89.405 	"/>
<polygon fill-rule="evenodd" clip-rule="evenodd" fill="#FF0000" points="58.261,98.756 60.563,97.892 62.289,102.063 
59.915,103.286 58.261,98.756 	"/>
<polygon fill-rule="evenodd" clip-rule="evenodd" fill="#FF0000" points="62.073,107.747 64.231,106.955 66.245,111.63 
63.727,112.638 62.073,107.747 	"/>
<polygon fill-rule="evenodd" clip-rule="evenodd" fill="#FF0000" points="65.741,117.456 68.402,116.161 70.56,121.988 
67.251,121.341 65.741,117.456 	"/>
<path fill-rule="evenodd" clip-rule="evenodd" fill="#FFFFFF" d="M75.955,104.078c3.164-1.582,4.243-1.654,4.315-0.144
c-1.294,1.078-2.374,2.949-3.669,5.395L75.955,104.078L75.955,104.078z"/>
<path fill-rule="evenodd" clip-rule="evenodd" d="M69.194,35.532c0.288-0.215,0.647-0.144,0.863,0.072
c0.215,0.215,0.144,0.575-0.072,0.791c-0.863,0.791-1.583,1.654-2.158,2.445c-0.503,0.792-0.863,1.655-1.079,2.446
c-0.072,0.288-0.431,0.432-0.719,0.359c-0.288-0.072-0.431-0.359-0.359-0.647c0.216-0.935,0.647-1.87,1.223-2.733
C67.539,37.33,68.259,36.467,69.194,35.532L69.194,35.532z"/>
<path fill-rule="evenodd" clip-rule="evenodd" d="M60.922,37.042c0.216-0.144,0.576-0.144,0.792,0.144
c0.144,0.216,0.144,0.576-0.144,0.792c-1.007,0.719-1.798,1.582-2.302,2.589c-0.575,0.935-0.935,2.014-1.079,3.165
c0,0.36-0.288,0.576-0.576,0.504c-0.359,0-0.575-0.288-0.503-0.576c0.144-1.367,0.503-2.589,1.151-3.668
S59.771,37.906,60.922,37.042L60.922,37.042z"/>
<path fill-rule="evenodd" clip-rule="evenodd" d="M51.788,40.207L51.788,40.207c0.215-0.216,0.575-0.216,0.791,0
s0.216,0.576,0,0.792l0,0l0,0c-0.288,0.288-0.504,0.575-0.719,0.791c-0.216,0.288-0.36,0.576-0.576,0.863l0,0
c-0.791,1.295-0.935,2.662-0.431,3.956c0.072,0.288-0.072,0.647-0.36,0.72c-0.288,0.072-0.647-0.072-0.719-0.36
c-0.576-1.654-0.432-3.309,0.575-4.891l0,0c0.144-0.359,0.36-0.647,0.647-0.935C51.212,40.854,51.5,40.495,51.788,40.207
L51.788,40.207L51.788,40.207z M51.788,40.207L51.788,40.207L51.788,40.207L51.788,40.207z"/>
<path fill-rule="evenodd" clip-rule="evenodd" d="M43.3,45.17c0.144-0.288,0.504-0.36,0.792-0.216
c0.216,0.144,0.359,0.431,0.216,0.719c-0.576,1.15-1.007,2.229-1.151,3.38c-0.144,1.079-0.072,2.158,0.144,3.309
c0.072,0.288-0.072,0.576-0.431,0.647c-0.288,0.072-0.576-0.144-0.647-0.432c-0.288-1.223-0.36-2.445-0.216-3.74
C42.221,47.616,42.652,46.393,43.3,45.17L43.3,45.17z"/>
<path fill-rule="evenodd" clip-rule="evenodd" d="M35.892,51.284c0.072-0.288,0.432-0.503,0.719-0.359
c0.288,0.072,0.432,0.359,0.36,0.647l0,0c-0.072,0.288-0.144,0.575-0.216,0.863c0,0.215-0.072,0.503-0.072,0.791
c-0.072,1.367,0.288,2.733,1.079,4.1c0.216,0.288,0.072,0.647-0.216,0.792c-0.216,0.144-0.575,0.072-0.719-0.216
c-0.935-1.583-1.367-3.165-1.295-4.748c0.072-0.288,0.072-0.647,0.144-0.935C35.748,51.859,35.819,51.572,35.892,51.284
L35.892,51.284L35.892,51.284z"/>
<path fill-rule="evenodd" clip-rule="evenodd" d="M29.562,58.477c0-0.288,0.288-0.575,0.575-0.575c0.288,0,0.576,0.288,0.576,0.575
c-0.072,1.223,0.072,2.374,0.36,3.381c0.288,1.007,0.791,1.87,1.366,2.661c0.216,0.216,0.144,0.575-0.072,0.791
c-0.288,0.144-0.647,0.144-0.792-0.144c-0.719-0.863-1.223-1.87-1.582-3.021C29.706,61.066,29.49,59.843,29.562,58.477
L29.562,58.477z"/>
<path fill-rule="evenodd" clip-rule="evenodd" d="M24.599,66.604c0-0.287,0.215-0.575,0.503-0.647c0.288,0,0.575,0.216,0.647,0.575
c0.072,1.151,0.359,2.23,0.935,3.093c0.503,0.863,1.223,1.582,2.158,2.085c0.288,0.216,0.359,0.504,0.216,0.792
c-0.144,0.288-0.504,0.36-0.791,0.215c-1.079-0.647-1.942-1.51-2.59-2.517C25.103,69.194,24.743,67.971,24.599,66.604
L24.599,66.604z"/>
<path fill-rule="evenodd" clip-rule="evenodd" d="M88.254,37.33c0.288-0.072,0.647,0.072,0.72,0.36
c0.071,0.288-0.072,0.647-0.432,0.719c-1.151,0.288-2.157,0.719-2.877,1.294c-0.72,0.503-1.224,1.079-1.511,1.798
c-0.144,0.288-0.432,0.432-0.719,0.288c-0.288-0.072-0.432-0.432-0.288-0.719c0.359-0.863,1.007-1.654,1.87-2.302
C85.881,38.193,86.96,37.69,88.254,37.33L88.254,37.33z"/>
<path fill-rule="evenodd" clip-rule="evenodd" d="M97.389,40.567c0.288-0.072,0.576,0.144,0.647,0.503
c0.072,0.288-0.144,0.575-0.431,0.647c-1.295,0.144-2.303,0.432-3.094,0.863c-0.791,0.359-1.295,0.863-1.654,1.438
c-0.144,0.216-0.503,0.359-0.791,0.144c-0.288-0.144-0.359-0.503-0.216-0.719c0.504-0.792,1.151-1.367,2.157-1.87
C94.871,41.142,96.022,40.783,97.389,40.567L97.389,40.567z"/>
<path fill-rule="evenodd" clip-rule="evenodd" d="M104.869,45.026c0.288,0,0.504,0.288,0.504,0.575
c0,0.288-0.216,0.575-0.504,0.575c-1.007,0-1.87,0.145-2.518,0.432c-0.646,0.288-1.15,0.72-1.438,1.295
c-0.217,0.288-0.504,0.36-0.792,0.216s-0.36-0.503-0.216-0.719c0.432-0.792,1.079-1.438,1.941-1.798
C102.711,45.242,103.646,45.026,104.869,45.026L104.869,45.026z"/>
<path fill-rule="evenodd" clip-rule="evenodd" d="M111.99,50.708c0.287,0.072,0.504,0.36,0.432,0.647
c-0.072,0.359-0.359,0.503-0.72,0.432c-1.438-0.288-2.877,0-4.315,1.007c-0.287,0.144-0.646,0.072-0.791-0.216
c-0.145-0.216-0.072-0.576,0.145-0.791C108.466,50.708,110.191,50.349,111.99,50.708L111.99,50.708z"/>
<path fill-rule="evenodd" clip-rule="evenodd" d="M118.032,57.47c0.288,0.072,0.431,0.432,0.359,0.719
c-0.144,0.288-0.503,0.432-0.791,0.288c-0.72-0.288-1.511-0.432-2.229-0.288c-0.792,0.072-1.583,0.432-2.374,0.935
c-0.216,0.144-0.575,0.072-0.792-0.144c-0.143-0.288-0.07-0.647,0.217-0.791c0.863-0.647,1.799-1.007,2.805-1.151
C116.162,56.966,117.098,57.038,118.032,57.47L118.032,57.47z"/>
<path fill-rule="evenodd" clip-rule="evenodd" d="M122.923,65.741c0.216,0.144,0.36,0.503,0.216,0.791
c-0.216,0.216-0.504,0.36-0.791,0.144c-0.791-0.432-1.511-0.719-2.302-0.863c-0.72-0.144-1.511-0.072-2.229,0.072
c-0.359,0.072-0.647-0.072-0.719-0.432c-0.072-0.288,0.143-0.576,0.431-0.647c0.935-0.216,1.798-0.216,2.733-0.072
C121.125,64.878,121.988,65.238,122.923,65.741L122.923,65.741z"/>
<path fill-rule="evenodd" clip-rule="evenodd" d="M126.16,74.157c0.287,0.144,0.359,0.503,0.215,0.791
c-0.215,0.216-0.503,0.36-0.791,0.144c-0.646-0.36-1.295-0.576-1.941-0.791c-0.72-0.144-1.511-0.216-2.374-0.144
c-0.288,0-0.575-0.216-0.575-0.503c0-0.36,0.216-0.576,0.504-0.647c0.935,0,1.798,0,2.66,0.216
C124.721,73.438,125.44,73.725,126.16,74.157L126.16,74.157z"/>
<path fill-rule="evenodd" clip-rule="evenodd" d="M21.435,75.595c-0.145-0.288-0.072-0.647,0.215-0.792
c0.288-0.144,0.647,0,0.792,0.288c0.503,1.007,1.151,1.942,1.798,2.805c0.647,0.791,1.367,1.51,2.158,2.158
c0.216,0.144,0.288,0.503,0.072,0.791c-0.216,0.216-0.576,0.288-0.792,0.072c-0.863-0.647-1.582-1.438-2.301-2.302
C22.657,77.681,22.01,76.674,21.435,75.595L21.435,75.595z"/>
<path fill-rule="evenodd" clip-rule="evenodd" d="M20.427,95.087c-0.216-0.287-0.144-0.646,0.144-0.791
c0.288-0.215,0.575-0.144,0.791,0.145l0,0l0,0c0.144,0.287,0.359,0.503,0.575,0.719c0.216,0.287,0.432,0.504,0.647,0.647
c1.223,1.007,2.662,1.438,3.812,1.295c0.36-0.072,0.647,0.144,0.647,0.503c0.072,0.287-0.144,0.576-0.503,0.648
c-1.438,0.143-3.165-0.361-4.675-1.584c-0.216-0.215-0.503-0.431-0.791-0.719C20.859,95.663,20.643,95.376,20.427,95.087
L20.427,95.087L20.427,95.087L20.427,95.087z"/>
<path fill-rule="evenodd" clip-rule="evenodd" d="M123.211,81.709c-0.359-0.072-0.504-0.36-0.432-0.647s0.359-0.503,0.646-0.432
c1.655,0.36,3.381,1.151,5.035,2.518c0.217,0.144,0.288,0.503,0.072,0.791c-0.216,0.216-0.575,0.288-0.791,0.072
C126.231,82.788,124.721,82.068,123.211,81.709L123.211,81.709z"/>
<path fill-rule="evenodd" clip-rule="evenodd" d="M123.211,99.187c-0.288-0.144-0.359-0.503-0.216-0.719
c0.144-0.287,0.431-0.432,0.72-0.287c0.791,0.359,1.438,0.935,2.086,1.726c0.574,0.72,1.15,1.583,1.582,2.661
c0.144,0.288,0,0.647-0.288,0.791c-0.288,0.072-0.575,0-0.72-0.287c-0.432-1.008-0.935-1.798-1.438-2.445
C124.434,99.979,123.857,99.476,123.211,99.187L123.211,99.187z"/>
<path fill-rule="evenodd" clip-rule="evenodd" d="M120.693,107.819c-0.216-0.217-0.216-0.576,0-0.792s0.575-0.216,0.791,0.071
c0.72,0.721,1.295,1.511,1.727,2.303c0.432,0.862,0.791,1.798,1.007,2.732c0.071,0.288-0.144,0.647-0.432,0.719
c-0.36,0-0.647-0.144-0.72-0.431c-0.144-0.936-0.432-1.726-0.862-2.446C121.771,109.185,121.269,108.466,120.693,107.819
L120.693,107.819z"/>
<path fill-rule="evenodd" clip-rule="evenodd" d="M21.29,103.071c-0.215-0.216-0.215-0.575,0-0.791
c0.216-0.217,0.576-0.217,0.792,0l0,0c0.216,0.216,0.432,0.432,0.719,0.575c0.288,0.216,0.576,0.431,0.863,0.575
c1.654,0.863,3.668,1.295,4.819,1.15c0.288-0.071,0.576,0.145,0.647,0.432c0,0.36-0.216,0.647-0.503,0.647
c-1.367,0.216-3.668-0.287-5.466-1.223c-0.36-0.216-0.719-0.431-1.007-0.647C21.794,103.575,21.506,103.358,21.29,103.071
L21.29,103.071L21.29,103.071z"/>
<path fill-rule="evenodd" clip-rule="evenodd" d="M24.167,112.062c-0.288-0.215-0.359-0.503-0.144-0.791
c0.144-0.287,0.504-0.359,0.791-0.144c1.007,0.647,2.014,1.151,3.021,1.366c1.007,0.216,2.014,0.288,3.021,0.072
c0.288-0.072,0.647,0.144,0.647,0.432c0.072,0.359-0.144,0.647-0.431,0.72c-1.151,0.216-2.302,0.144-3.453-0.144
C26.469,113.284,25.318,112.781,24.167,112.062L24.167,112.062z"/>
<path fill-rule="evenodd" clip-rule="evenodd" d="M28.699,119.974c-0.288-0.072-0.431-0.432-0.288-0.719
c0.072-0.287,0.432-0.432,0.719-0.287c1.151,0.503,2.23,0.862,3.309,1.078c1.007,0.217,1.942,0.145,2.733-0.216
c0.288-0.144,0.647,0,0.791,0.288c0.072,0.287,0,0.575-0.288,0.719c-1.079,0.504-2.23,0.576-3.453,0.288
C31.073,120.98,29.921,120.478,28.699,119.974L28.699,119.974z"/>
<path fill-rule="evenodd" clip-rule="evenodd" d="M34.885,127.599c-0.288-0.145-0.432-0.432-0.36-0.72
c0.144-0.288,0.432-0.503,0.719-0.359c1.007,0.359,2.014,0.503,3.021,0.359c1.007-0.071,2.014-0.359,3.021-0.862
c0.288-0.145,0.647,0,0.791,0.287c0.144,0.287,0,0.575-0.288,0.719c-1.151,0.576-2.302,0.936-3.453,1.007
C37.186,128.102,36.035,127.958,34.885,127.599L34.885,127.599z"/>
<path fill-rule="evenodd" clip-rule="evenodd" d="M41.861,133.567c-0.288-0.071-0.431-0.431-0.288-0.719
c0.072-0.287,0.432-0.432,0.719-0.287c1.007,0.359,1.942,0.432,2.949,0.287c1.007-0.143,2.014-0.575,3.021-1.294
c0.288-0.144,0.575-0.072,0.791,0.144c0.144,0.287,0.072,0.646-0.144,0.791c-1.151,0.791-2.302,1.295-3.524,1.439
C44.235,134.144,43.084,133.999,41.861,133.567L41.861,133.567z"/>
<path fill-rule="evenodd" clip-rule="evenodd" d="M49.773,139.106c-0.288,0-0.576-0.216-0.576-0.503
c0-0.36,0.216-0.575,0.576-0.575c1.007-0.072,2.086-0.289,3.165-0.648c1.007-0.431,2.086-1.078,3.165-2.014
c0.216-0.215,0.575-0.145,0.791,0.072c0.216,0.216,0.144,0.575-0.072,0.791c-1.151,1.007-2.302,1.727-3.524,2.158
C52.147,138.891,50.996,139.034,49.773,139.106L49.773,139.106z"/>
<path fill-rule="evenodd" clip-rule="evenodd" d="M59.483,142.343c-0.288,0.072-0.647-0.072-0.647-0.432
c-0.072-0.287,0.072-0.574,0.432-0.646l0,0c0.288-0.072,0.576-0.145,0.863-0.216c0.216-0.071,0.503-0.144,0.791-0.288
c1.295-0.575,2.374-1.439,3.309-2.732c0.144-0.217,0.503-0.289,0.719-0.072c0.288,0.145,0.359,0.504,0.144,0.791
c-1.007,1.366-2.229,2.373-3.74,3.021c-0.288,0.144-0.575,0.288-0.935,0.36C60.131,142.2,59.771,142.343,59.483,142.343
L59.483,142.343L59.483,142.343z"/>
<path fill-rule="evenodd" clip-rule="evenodd" d="M81.854,138.747c0.144-0.287,0.503-0.287,0.791-0.144
c0.215,0.216,0.287,0.575,0.071,0.79l-2.589,3.31c-0.145,0.216-0.504,0.287-0.792,0.071c-0.216-0.215-0.288-0.504-0.071-0.791
L81.854,138.747L81.854,138.747z"/>
<path fill-rule="evenodd" clip-rule="evenodd" d="M90.125,136.373c0.071-0.287,0.359-0.503,0.646-0.432
c0.288,0.072,0.504,0.432,0.432,0.72c-0.359,1.223-0.863,2.373-1.51,3.381c-0.72,1.078-1.583,1.941-2.662,2.732
c-0.215,0.216-0.575,0.145-0.791-0.071c-0.144-0.288-0.144-0.647,0.145-0.792c0.934-0.719,1.726-1.51,2.373-2.445
C89.333,138.531,89.837,137.524,90.125,136.373L90.125,136.373z"/>
<path fill-rule="evenodd" clip-rule="evenodd" d="M98.108,133.137c0.071-0.288,0.359-0.503,0.647-0.431
c0.359,0,0.503,0.287,0.503,0.646c-0.216,1.15-0.647,2.302-1.223,3.309c-0.503,1.078-1.294,2.086-2.229,2.949
c-0.216,0.287-0.575,0.287-0.791,0.072c-0.217-0.289-0.217-0.576,0-0.863c0.863-0.791,1.51-1.727,2.086-2.662
C97.605,135.222,97.965,134.216,98.108,133.137L98.108,133.137z"/>
<path fill-rule="evenodd" clip-rule="evenodd" d="M105.301,128.39c-0.072-0.36,0.145-0.647,0.432-0.72
c0.359,0,0.647,0.144,0.719,0.503c0.36,2.087,0.072,4.244-0.935,6.33c-0.144,0.288-0.503,0.432-0.72,0.288
c-0.287-0.144-0.432-0.503-0.287-0.792C105.445,132.13,105.66,130.26,105.301,128.39L105.301,128.39z"/>
<path fill-rule="evenodd" clip-rule="evenodd" d="M111.631,122.204c-0.072-0.288,0.071-0.576,0.359-0.648
c0.359-0.143,0.647,0.072,0.719,0.36l0,0l0,0c0.145,0.288,0.217,0.503,0.217,0.792c0.071,0.287,0.143,0.503,0.215,0.791
c0.217,1.366,0.217,2.805-0.072,4.171c-0.071,0.288-0.359,0.503-0.646,0.432c-0.287-0.072-0.504-0.359-0.432-0.647
c0.215-1.223,0.215-2.518,0-3.74c0-0.215-0.072-0.503-0.145-0.719C111.774,122.708,111.702,122.491,111.631,122.204
L111.631,122.204L111.631,122.204L111.631,122.204z"/>
<path fill-rule="evenodd" clip-rule="evenodd" d="M116.881,115.011c-0.216-0.287-0.144-0.646,0.145-0.791
c0.215-0.216,0.575-0.144,0.719,0.145c0.791,1.078,1.295,2.157,1.438,3.236c0.144,1.078,0,2.229-0.503,3.309
c-0.072,0.287-0.432,0.432-0.72,0.287c-0.288-0.144-0.432-0.431-0.288-0.719c0.36-0.936,0.504-1.799,0.36-2.733
C117.889,116.881,117.528,115.946,116.881,115.011L116.881,115.011z"/>
<path fill-rule="evenodd" clip-rule="evenodd" fill="#FFFFFF" d="M70.129,4.891c-0.216,0.288-0.432,0.503-0.647,0.791
c-1.87,2.086-2.805,4.172-2.805,6.258c0,0.719,0.144,1.438,0.36,2.23c0.503,1.438,1.51,2.877,3.093,4.315l-0.792,0.863
c-1.726-1.51-2.877-3.165-3.452-4.819c-0.288-0.863-0.432-1.726-0.432-2.589c0-2.374,1.079-4.747,3.093-7.049
c0.288-0.288,0.503-0.576,0.791-0.791L70.129,4.891L70.129,4.891z"/>
<path fill-rule="evenodd" clip-rule="evenodd" fill="#FFFFFF" d="M81.133,4.1c0.504,0.431,0.936,0.935,1.367,1.438
c1.727,2.086,2.662,4.315,2.662,6.473c0,2.086-0.864,4.172-2.734,6.114c-0.359,0.432-0.791,0.863-1.295,1.223l-0.791-0.935
c0.432-0.359,0.863-0.719,1.223-1.079c1.654-1.726,2.375-3.524,2.375-5.323c0-1.87-0.792-3.812-2.375-5.682
c-0.359-0.503-0.791-0.935-1.223-1.367L81.133,4.1L81.133,4.1z"/>
<path fill-rule="evenodd" clip-rule="evenodd" fill="#FFFFFF" d="M73.581,146.803l-2.517,10.142
c-28.339-2.806-47.976-15.104-56.966-38.912l5.035-0.646l-5.97-1.871l-3.812-10.142l2.229,11.077l-3.165,4.746l3.812-2.877
c10.573,23.951,29.994,38.193,58.189,42.725l3.165,9.135V146.803L73.581,146.803z"/>
<path fill-rule="evenodd" clip-rule="evenodd" fill="#FFFFFF" d="M81.819,157.96c21.051-2.814,41.808-12.748,53.08-37.666
L129.864,119l5.683-1.295l4.1-10.069l-2.229,11.076l3.452,4.747l-4.387-2.589c-11.173,25.07-31.384,36.244-54.663,40.517V157.96
L81.819,157.96z"/>

<path fill="none" stroke="#0482B8" stroke-width="2.0002" stroke-linecap="round" stroke-linejoin="round" stroke-miterlimit="2.6131" d="
M60.872,70.697c5.189-3.737,11.684-6.978,17.292-4.479c-0.258,13.639,3.408,26.654,14.835,39.427
c-1.147,0.876-2.13,1.863-2.799,2.952c-2.812,4.575-6.723,6.584-9.819,6.259C77.65,99.33,71.044,84.84,60.872,70.697L60.872,70.697
z"/>

<path fill-rule="evenodd" clip-rule="evenodd" fill="#0482B8" stroke="#0482B8" stroke-width="2.0002" stroke-linecap="round" stroke-linejoin="round" stroke-miterlimit="2.6131" d="
M78.164,66.218c1.533,0.683,3.002,1.792,4.357,3.441c3.121-2.194,6.303-3.59,9.547-4.189c1.188,12.667,5.106,24.535,11.755,35.606
c-2.519,0.348-7.408,1.964-10.824,4.568C81.572,92.872,77.906,79.857,78.164,66.218L78.164,66.218z"/>

<path fill-rule="evenodd" clip-rule="evenodd" fill="#FF0000" stroke="#FF0000" stroke-width="2.0002" stroke-linecap="round" stroke-linejoin="round" stroke-miterlimit="2.6131" d="
M52.286,77.75c1.48-1.117,4.659-4.226,8.586-7.053C71.044,84.84,77.65,99.33,80.381,114.856c-3.645-0.385-6.16-4.002-4.427-10.488
c-3.129,0.798-7.86,4.396-10.044,5.793C64.375,100.05,61.534,88.947,52.286,77.75L52.286,77.75z"/>
<path fill="#FFFFFF" d="M57.214,124.483l-2.05-1.184c-0.525-0.303-0.938-0.219-1.195,0.227c-0.245,0.424-0.119,0.859,0.386,1.15
l2.05,1.185c0.515,0.297,0.944,0.208,1.194-0.226C57.851,125.2,57.719,124.774,57.214,124.483L57.214,124.483z M45.354,115.438
c-0.867,0.897-0.856,1.961-0.105,3.399c0.461,0.882,0.815,1.322,0.402,1.75c-0.284,0.293-0.738,0.276-1.157-0.128
c-0.36-0.349-0.535-0.924-0.862-1.239c-0.395-0.381-0.832-0.364-1.171-0.013c-0.462,0.479-0.213,1.497,0.776,2.453
c1.317,1.271,2.95,1.275,3.987,0.202c0.899-0.931,0.767-1.868-0.05-3.323c-0.459-0.816-0.708-1.348-0.247-1.826
c0.34-0.353,0.885-0.328,1.263,0.036c0.604,0.583,0.799,1.354,1.16,1.703c0.419,0.405,0.914,0.396,1.262,0.036
c0.47-0.486,0.111-1.744-1.004-2.821C48.181,114.29,46.472,114.28,45.354,115.438L45.354,115.438z M45.803,113.253
c0.469-0.366,0.551-1.021,0.185-1.49c-0.359-0.459-1.015-0.539-1.484-0.173c-0.459,0.359-0.549,1.021-0.19,1.479
C44.672,113.53,45.344,113.612,45.803,113.253L45.803,113.253z M42.713,106.295c-0.709-1.392-1.811-2.009-2.466-1.675
c-0.395,0.201-0.568,0.708-0.394,1.051c0.201,0.395,0.824,0.667,1.184,1.373c0.577,1.133,0.101,2.305-1.281,3.009
c-1.423,0.726-2.672,0.433-3.223-0.649c-0.313-0.612-0.27-1.249-0.466-1.633c-0.202-0.396-0.729-0.531-1.124-0.331
c-0.592,0.302-0.724,1.508-0.057,2.817c1.038,2.036,3.391,2.854,5.76,1.646C43.026,110.69,43.804,108.436,42.713,106.295
L42.713,106.295z M40.153,103.458c0.566-0.184,0.867-0.771,0.684-1.338c-0.181-0.555-0.77-0.854-1.336-0.669
c-0.554,0.18-0.865,0.771-0.685,1.326S39.599,103.639,40.153,103.458L40.153,103.458z M38.892,92.278
c-0.109-1.559-0.882-2.557-1.615-2.506c-0.442,0.03-0.8,0.43-0.773,0.813c0.031,0.442,0.498,0.936,0.553,1.726
c0.089,1.269-0.808,2.162-2.355,2.27c-1.593,0.111-2.628-0.646-2.713-1.855c-0.048-0.686,0.24-1.256,0.209-1.687
c-0.031-0.442-0.463-0.774-0.905-0.743c-0.663,0.047-1.256,1.104-1.153,2.57c0.159,2.28,2.006,3.951,4.659,3.766
C37.462,96.446,39.059,94.675,38.892,92.278L38.892,92.278z M34.388,88.073c2.598,0.365,4.569-0.995,4.91-3.42
S38.12,80.366,35.522,80c-2.61-0.367-4.574,1.041-4.91,3.432S31.778,87.706,34.388,88.073L34.388,88.073z M34.696,86.043
c-1.628-0.229-2.473-1.172-2.306-2.361c0.167-1.189,1.239-1.863,2.868-1.634c1.559,0.219,2.414,1.175,2.248,2.353
C37.34,85.579,36.255,86.262,34.696,86.043L34.696,86.043z M36.727,75.51l-1.871-0.756l0.336-0.833
c0.284-0.703,0.787-0.952,1.36-0.721c0.594,0.24,0.79,0.785,0.501,1.498L36.727,75.51L36.727,75.51z M37.894,75.982l3.388-1.008
c0.531-0.163,0.869-0.34,1.009-0.687c0.196-0.486-0.033-0.981-0.487-1.166c-0.281-0.113-0.686-0.076-1.215,0.113l-2.094,0.764
c0.272-1.235-0.242-2.235-1.333-2.676c-1.417-0.572-2.82,0.068-3.584,1.96l-0.551,1.362c-0.393,0.973-0.111,1.364,0.743,1.709
l5.309,2.145c0.833,0.336,1.359,0.222,1.599-0.373c0.24-0.595-0.059-1.042-0.892-1.379L37.894,75.982L37.894,75.982z
M43.298,69.732l-4.88-3.169c-0.753-0.489-1.29-0.476-1.639,0.062c-0.349,0.538-0.143,1.034,0.61,1.523l4.88,3.169
c0.753,0.489,1.292,0.478,1.641-0.061C44.259,70.718,44.051,70.221,43.298,69.732L43.298,69.732z M45.771,66.355l-2.877-2.501
l5.647,0.382c0.598,0.041,0.972-0.066,1.232-0.366c0.398-0.458,0.266-0.913-0.324-1.425l-4.55-3.956
c-0.678-0.589-1.211-0.651-1.632-0.167c-0.421,0.484-0.285,1.003,0.392,1.592l2.931,2.548l-5.764-0.391
c-0.498-0.031-0.84,0.042-1.116,0.359c-0.398,0.458-0.248,0.943,0.377,1.486l4.444,3.864c0.678,0.589,1.212,0.652,1.633,0.168
S46.449,66.944,45.771,66.355L45.771,66.355z M49.159,55.88l3.037,4.336c0.515,0.736,1.019,0.926,1.544,0.559
c0.525-0.368,0.519-0.907,0.003-1.642l-3.037-4.337l0.573-0.401c0.735-0.515,0.938-0.998,0.597-1.485
c-0.341-0.487-0.872-0.472-1.607,0.043l-2.693,1.886c-0.736,0.515-0.933,1.009-0.592,1.497c0.341,0.487,0.866,0.461,1.602-0.054
L49.159,55.88L49.159,55.88z M57.431,54.409l3.174-1.414l0.859,1.928c0.365,0.82,0.823,1.104,1.409,0.843s0.682-0.791,0.316-1.611
l-2.367-5.316c-0.365-0.82-0.822-1.102-1.408-0.841c-0.586,0.261-0.683,0.789-0.318,1.609l0.797,1.79l-3.175,1.414l-0.796-1.79
c-0.366-0.82-0.822-1.102-1.409-0.841c-0.586,0.261-0.683,0.789-0.317,1.609l2.367,5.316c0.365,0.82,0.824,1.104,1.409,0.843
c0.586-0.261,0.682-0.791,0.317-1.611L57.431,54.409L57.431,54.409z M67.376,53.23l-1.309-5.67
c-0.202-0.875-0.597-1.238-1.222-1.094c-0.625,0.145-0.821,0.645-0.619,1.52l1.309,5.67c0.202,0.875,0.598,1.24,1.223,1.096
C67.383,54.607,67.578,54.105,67.376,53.23L67.376,53.23z M71.408,50.627l0.809-3.143l1.169,3.004L71.408,50.627L71.408,50.627z
M70.994,52.398l3.059-0.214l0.287,0.751c0.229,0.604,0.564,0.886,1.053,0.852c0.523-0.036,0.906-0.416,0.869-0.951
c-0.012-0.163-0.072-0.357-0.17-0.584l-2.509-5.798c-0.306-0.692-0.821-1.042-1.461-0.997c-0.698,0.049-1.112,0.475-1.357,1.322
l-1.744,5.99c-0.058,0.18-0.068,0.367-0.055,0.553c0.036,0.523,0.435,0.872,0.958,0.835c0.407-0.028,0.702-0.332,0.849-0.903
L70.994,52.398L70.994,52.398z M79.741,52.874l0.663-3.755l2.58,5.038c0.273,0.534,0.559,0.799,0.949,0.868
c0.597,0.105,0.918-0.243,1.055-1.012l1.047-5.937c0.155-0.885-0.066-1.374-0.697-1.485c-0.633-0.111-1.008,0.272-1.164,1.157
L83.5,51.571l-2.634-5.142c-0.229-0.443-0.47-0.699-0.883-0.771c-0.597-0.105-0.937,0.273-1.08,1.088l-1.022,5.799
c-0.156,0.885,0.065,1.375,0.697,1.487C79.209,54.144,79.586,53.758,79.741,52.874L79.741,52.874z M92.883,55.56
c0.508-1.14,0.135-2.136-1.063-3.231c-0.734-0.671-1.218-0.963-0.976-1.506c0.166-0.373,0.598-0.512,1.131-0.275
c0.458,0.204,0.819,0.684,1.234,0.869c0.5,0.223,0.906,0.059,1.105-0.389c0.27-0.607-0.313-1.479-1.569-2.039
c-1.673-0.745-3.208-0.19-3.815,1.173c-0.527,1.183-0.082,2.019,1.183,3.105c0.712,0.61,1.127,1.025,0.856,1.632
c-0.199,0.447-0.719,0.612-1.198,0.398c-0.767-0.342-1.214-1-1.673-1.204c-0.532-0.237-0.994-0.06-1.198,0.398
c-0.274,0.618,0.492,1.676,1.909,2.307C90.619,57.605,92.229,57.03,92.883,55.56L92.883,55.56z M99.869,59.558l2.765-1.698
l-1.246,2.973L99.869,59.558L99.869,59.558z M98.341,60.545l2.35,1.971l-0.316,0.74c-0.255,0.593-0.209,1.029,0.166,1.344
c0.401,0.337,0.94,0.33,1.286-0.081c0.104-0.125,0.196-0.307,0.283-0.538l2.223-5.915c0.261-0.71,0.133-1.319-0.358-1.731
c-0.536-0.45-1.13-0.431-1.895,0.008l-5.416,3.098c-0.165,0.089-0.304,0.217-0.423,0.36c-0.338,0.402-0.293,0.929,0.109,1.266
c0.313,0.263,0.734,0.249,1.237-0.06L98.341,60.545L98.341,60.545z M107.622,61.779l-4.559,3.691
c-0.698,0.565-0.748,0.966-0.117,1.746l1.388,1.713c0.564,0.698,1.061,0.866,1.523,0.492c0.462-0.375,0.4-0.895-0.164-1.592
l-1.006-1.242l4.123-3.339c0.698-0.565,0.852-1.08,0.448-1.578C108.855,61.171,108.32,61.214,107.622,61.779L107.622,61.779z
M109.5,71.197l3.199-0.539l-2.27,2.29L109.5,71.197L109.5,71.197z M107.713,71.539l1.44,2.708l-0.569,0.567
c-0.459,0.455-0.58,0.876-0.351,1.309c0.247,0.463,0.749,0.658,1.222,0.407c0.145-0.077,0.298-0.211,0.466-0.393l4.276-4.651
c0.507-0.561,0.617-1.174,0.316-1.74c-0.329-0.618-0.888-0.823-1.761-0.702l-6.182,0.843c-0.188,0.021-0.363,0.087-0.528,0.175
c-0.463,0.247-0.619,0.752-0.372,1.215c0.191,0.361,0.588,0.506,1.17,0.408L107.713,71.539L107.713,71.539z M113.693,82.586
c-1.002,0.226-1.785-0.264-2.025-1.226c-0.299-1.199,0.461-2.254,2.044-2.649c1.55-0.387,2.665,0.177,2.972,1.411
c0.276,1.109-0.357,1.892-0.222,2.435c0.106,0.43,0.602,0.679,1.055,0.566c0.792-0.198,1.381-1.595,0.936-3.382
c-0.615-2.466-2.653-3.653-5.268-3.001c-2.558,0.638-3.864,2.682-3.309,4.911c0.573,2.297,2.557,3.353,4.798,2.794
c0.882-0.22,1.125-0.689,0.902-1.583l-0.336-1.346c-0.215-0.86-0.582-1.225-1.182-1.076s-0.741,0.642-0.526,1.501L113.693,82.586
L113.693,82.586z M115.267,86.689c-2.624-0.046-4.414,1.544-4.457,3.993c-0.042,2.448,1.691,4.111,4.315,4.157
c2.635,0.046,4.412-1.59,4.455-4.004C119.622,88.421,117.902,86.735,115.267,86.689L115.267,86.689z M115.207,88.74
c1.645,0.029,2.598,0.862,2.577,2.063s-1.003,2-2.647,1.971c-1.574-0.027-2.539-0.872-2.518-2.061
C112.64,89.524,113.633,88.713,115.207,88.74L115.207,88.74z M113.283,99.125l2.709,1.788l-3.221,0.127L113.283,99.125
L113.283,99.125z M111.744,98.157l-0.794,2.962l-0.804,0.026c-0.645,0.021-1.021,0.246-1.148,0.719
c-0.135,0.507,0.099,0.992,0.617,1.131c0.157,0.043,0.361,0.049,0.607,0.03l6.299-0.485c0.754-0.064,1.252-0.438,1.418-1.057
c0.182-0.676-0.087-1.207-0.809-1.714l-5.096-3.599c-0.15-0.113-0.325-0.184-0.506-0.232c-0.506-0.136-0.965,0.128-1.102,0.635
c-0.105,0.395,0.086,0.771,0.578,1.096L111.744,98.157L111.744,98.157z M108.66,106.44l3.302,1.906l-5.616,0.703
c-0.596,0.074-0.941,0.25-1.141,0.594c-0.303,0.525-0.086,0.947,0.59,1.338l5.223,3.014c0.777,0.449,1.313,0.408,1.633-0.146
c0.32-0.556,0.088-1.04-0.689-1.488l-3.363-1.941l5.733-0.717c0.495-0.064,0.817-0.203,1.026-0.565
c0.303-0.526,0.064-0.974-0.653-1.388l-5.101-2.944c-0.777-0.449-1.314-0.409-1.635,0.146S107.882,105.991,108.66,106.44
L108.66,106.44z M106.951,114.659c-1.919-1.789-4.313-1.807-5.984-0.015c-1.67,1.79-1.494,4.187,0.425,5.976
c1.928,1.798,4.345,1.771,5.991,0.006S108.879,116.456,106.951,114.659L106.951,114.659z M105.534,116.145
c1.202,1.121,1.354,2.378,0.534,3.257c-0.818,0.879-2.083,0.815-3.285-0.307c-1.152-1.073-1.304-2.346-0.492-3.217
C103.102,115.009,104.383,115.07,105.534,116.145L105.534,116.145z M94.477,123.224l-2.051,1.184
c-0.525,0.304-0.658,0.703-0.401,1.147c0.245,0.425,0.685,0.534,1.19,0.242l2.05-1.183c0.515-0.299,0.651-0.714,0.401-1.148
C95.415,123.032,94.98,122.933,94.477,123.224L94.477,123.224z"/>
<path fill="#FFFFFF" d="M64.477,132.388l1.583-5.521c0.259-0.905,0.102-1.379-0.668-1.6l-0.916-0.263
c-0.871-0.25-1.381-0.102-1.546,0.475c-0.159,0.555,0.188,0.973,0.992,1.203l0.169,0.049l-1.469,5.124
c-0.25,0.871-0.079,1.388,0.554,1.568C63.809,133.605,64.227,133.259,64.477,132.388L64.477,132.388z M72.115,129.073
c-0.057,0.645-0.593,1.105-1.179,1.055c-0.586-0.051-1.036-0.587-0.978-1.244c0.056-0.645,0.593-1.105,1.179-1.054
C71.723,127.882,72.171,128.429,72.115,129.073L72.115,129.073z M70.816,131.629c-0.979,1.19-1.892,1.643-1.944,2.24
c-0.041,0.469,0.355,0.931,0.836,0.974c0.48,0.041,1.081-0.475,2.003-1.434c1.443-1.504,2.214-2.89,2.317-4.074
c0.155-1.77-0.957-3.107-2.656-3.256c-1.794-0.157-3.233,1.039-3.379,2.704c-0.129,1.478,0.824,2.731,2.208,2.852
C70.33,131.646,70.532,131.64,70.816,131.629L70.816,131.629z M79.835,128.896c0.057,0.646-0.392,1.192-0.978,1.244
c-0.587,0.051-1.123-0.398-1.18-1.055c-0.057-0.645,0.392-1.191,0.979-1.243C79.242,127.79,79.778,128.251,79.835,128.896
L79.835,128.896z M79,131.639c-0.757,1.343-1.578,1.946-1.526,2.544c0.042,0.469,0.513,0.855,0.993,0.813
c0.48-0.042,0.982-0.654,1.725-1.759c1.159-1.732,1.678-3.229,1.574-4.415c-0.154-1.77-1.481-2.895-3.182-2.746
c-1.793,0.158-3.004,1.586-2.857,3.252c0.129,1.477,1.285,2.545,2.669,2.424C78.524,131.74,78.722,131.698,79,131.639L79,131.639z
M87.314,131.78l-1.583-5.521c-0.259-0.905-0.645-1.224-1.414-1.003l-0.916,0.264c-0.871,0.25-1.225,0.645-1.06,1.222
c0.159,0.554,0.676,0.724,1.479,0.494l0.17-0.049l1.469,5.125c0.25,0.871,0.668,1.218,1.302,1.036
C87.394,133.167,87.564,132.651,87.314,131.78L87.314,131.78z"/>
</g>
</svg>
