<?xml version="1.0" encoding="UTF-8"?>
<svg xmlns="http://www.w3.org/2000/svg" xmlns:xlink="http://www.w3.org/1999/xlink" width="69.2pt" height="82.82pt" viewBox="0 0 69.2 82.82" version="1.1">
<g id="surface1">
<path style=" stroke:none;fill-rule:nonzero;fill:rgb(90.586853%,23.921204%,14.509583%);fill-opacity:1;" d="M 34.597656 1.125 C 30.054688 1.125 25.644531 2.199219 21.496094 4.324219 C 17.507813 6.367188 13.925781 9.285156 10.855469 13 C 4.578125 20.601563 1.121094 30.691406 1.121094 41.410156 C 1.121094 53.429688 5.527344 64.730469 13.210938 72.414063 C 16.144531 75.347656 19.445313 77.640625 23.011719 79.222656 C 26.714844 80.867188 30.613281 81.695313 34.597656 81.695313 C 38.585938 81.695313 42.484375 80.867188 46.1875 79.222656 C 49.753906 77.640625 53.050781 75.347656 55.988281 72.414063 C 63.671875 64.730469 68.078125 53.429688 68.078125 41.410156 C 68.078125 29.394531 63.671875 18.09375 55.988281 10.410156 C 53.050781 7.472656 49.753906 5.183594 46.1875 3.601563 C 42.484375 1.957031 38.585938 1.125 34.597656 1.125 "/>
<path style=" stroke:none;fill-rule:nonzero;fill:rgb(100%,100%,100%);fill-opacity:1;" d="M 65.894531 41.410156 C 65.894531 46.578125 65.058594 51.589844 63.410156 56.308594 C 61.824219 60.851563 59.550781 64.929688 56.660156 68.429688 C 53.777344 71.914063 50.429688 74.648438 46.707031 76.554688 C 42.871094 78.515625 38.796875 79.511719 34.597656 79.511719 C 30.921875 79.511719 27.320313 78.742188 23.898438 77.226563 C 20.578125 75.753906 17.5 73.613281 14.753906 70.867188 C 7.480469 63.589844 3.304688 52.855469 3.304688 41.410156 C 3.304688 29.96875 7.480469 19.230469 14.753906 11.953125 C 17.5 9.210938 20.578125 7.070313 23.898438 5.597656 C 27.320313 4.078125 30.921875 3.308594 34.597656 3.308594 C 38.277344 3.308594 41.878906 4.078125 45.300781 5.597656 C 48.621094 7.070313 51.695313 9.210938 54.441406 11.953125 C 61.71875 19.230469 65.894531 29.96875 65.894531 41.410156 "/>
<path style=" stroke:none;fill-rule:nonzero;fill:rgb(98.431396%,93.72406%,27.842712%);fill-opacity:1;" d="M 65.875 42.164063 L 51.578125 73.410156 L 45.03125 63.597656 L 41.875 65.226563 L 34.59375 58.394531 L 27.316406 65.226563 L 24.160156 63.597656 L 17.609375 73.410156 L 3.316406 42.164063 L 15.246094 11.472656 L 22.46875 15.613281 L 34.59375 3.3125 L 46.726563 15.371094 L 52.878906 10.5 L 65.875 42.164063 "/>
<path style=" stroke:none;fill-rule:nonzero;fill:rgb(10.980225%,27.058411%,57.646179%);fill-opacity:1;" d="M 3.316406 42.164063 L 7.90625 52.195313 L 7.90625 30.355469 Z M 3.316406 42.164063 "/>
<path style=" stroke:none;fill-rule:nonzero;fill:rgb(10.980225%,27.058411%,57.646179%);fill-opacity:1;" d="M 15.246094 11.472656 L 12.757813 17.871094 L 12.757813 62.804688 L 17.609375 73.410156 L 17.609375 12.828125 L 15.246094 11.472656 "/>
<path style=" stroke:none;fill-rule:nonzero;fill:rgb(10.980225%,27.058411%,57.646179%);fill-opacity:1;" d="M 22.46875 15.613281 L 22.464844 15.609375 L 22.464844 66.136719 L 24.160156 63.597656 L 27.316406 65.226563 L 27.316406 10.695313 L 22.46875 15.613281 "/>
<path style=" stroke:none;fill-rule:nonzero;fill:rgb(10.980225%,27.058411%,57.646179%);fill-opacity:1;" d="M 34.59375 3.3125 L 32.167969 5.773438 L 32.167969 60.671875 L 34.59375 58.394531 L 37.019531 60.671875 L 37.019531 5.722656 L 34.59375 3.3125 "/>
<path style=" stroke:none;fill-rule:nonzero;fill:rgb(10.980225%,27.058411%,57.646179%);fill-opacity:1;" d="M 41.875 10.546875 L 41.875 65.226563 L 45.03125 63.597656 L 46.726563 66.136719 L 46.726563 15.371094 L 41.875 10.546875 "/>
<path style=" stroke:none;fill-rule:nonzero;fill:rgb(10.980225%,27.058411%,57.646179%);fill-opacity:1;" d="M 52.878906 10.5 L 51.578125 11.53125 L 51.578125 73.410156 L 56.429688 62.804688 L 56.429688 19.15625 L 52.878906 10.5 "/>
<path style=" stroke:none;fill-rule:nonzero;fill:rgb(10.980225%,27.058411%,57.646179%);fill-opacity:1;" d="M 65.875 42.164063 L 61.285156 30.976563 L 61.285156 52.199219 Z M 65.875 42.164063 "/>
<path style=" stroke:none;fill-rule:nonzero;fill:rgb(10.980225%,27.058411%,57.646179%);fill-opacity:1;" d="M 55.859375 44.785156 C 60.84375 44.785156 64.882813 40.75 64.882813 35.765625 C 64.882813 30.785156 60.84375 26.742188 55.859375 26.742188 C 50.878906 26.742188 46.835938 30.785156 46.835938 35.765625 C 46.835938 40.75 50.878906 44.785156 55.859375 44.785156 "/>
<path style=" stroke:none;fill-rule:nonzero;fill:rgb(100%,100%,100%);fill-opacity:1;" d="M 48.214844 36.855469 C 48.378906 35.699219 48.917969 34.75 49.722656 33.972656 C 49.464844 32.882813 49.523438 31.792969 50.003906 30.730469 C 50.003906 30.730469 49.230469 30.660156 48.738281 30.992188 C 49.808594 29.394531 51.40625 28.175781 53.277344 27.589844 C 52.816406 27.96875 52.667969 28.734375 52.667969 28.734375 C 53.824219 28.566406 54.890625 28.820313 55.859375 29.375 C 56.828125 28.820313 57.890625 28.566406 59.046875 28.734375 C 59.046875 28.734375 58.902344 27.96875 58.441406 27.589844 C 60.3125 28.175781 61.910156 29.394531 62.980469 30.988281 C 62.488281 30.660156 61.714844 30.730469 61.714844 30.730469 C 62.199219 31.792969 62.253906 32.882813 61.992188 33.972656 C 62.796875 34.75 63.339844 35.699219 63.503906 36.855469 C 63.503906 36.855469 64.195313 36.5 64.429688 35.953125 C 64.390625 37.882813 63.714844 39.652344 62.605469 41.0625 C 62.765625 40.492188 62.460938 39.78125 62.460938 39.78125 C 61.59375 40.570313 60.574219 40.957031 59.460938 41.046875 C 58.96875 42.050781 58.234375 42.855469 57.1875 43.375 C 57.1875 43.375 57.738281 43.921875 58.335938 43.980469 C 57.550781 44.210938 56.71875 44.34375 55.859375 44.34375 C 54.996094 44.34375 54.167969 44.210938 53.382813 43.980469 C 53.980469 43.921875 54.53125 43.375 54.53125 43.375 C 53.484375 42.855469 52.746094 42.050781 52.257813 41.046875 C 51.140625 40.957031 50.125 40.570313 49.261719 39.78125 C 49.261719 39.78125 48.953125 40.492188 49.117188 41.0625 C 48.003906 39.652344 47.328125 37.882813 47.289063 35.953125 C 47.527344 36.5 48.214844 36.855469 48.214844 36.855469 M 52.875 34.839844 C 52.875 34.839844 53.148438 36.828125 54.011719 38.347656 C 54.011719 38.347656 55.992188 38.699219 57.699219 38.351563 C 57.699219 38.351563 58.648438 36.574219 58.84375 34.839844 C 58.84375 34.839844 57.449219 33.390625 55.859375 32.671875 C 55.859375 32.671875 54.050781 33.550781 52.875 34.839844 "/>
<path style=" stroke:none;fill-rule:nonzero;fill:rgb(10.980225%,27.058411%,57.646179%);fill-opacity:1;" d="M 13.339844 44.785156 C 8.359375 44.785156 4.316406 40.75 4.316406 35.765625 C 4.316406 30.785156 8.359375 26.742188 13.339844 26.742188 C 18.320313 26.742188 22.359375 30.785156 22.359375 35.765625 C 22.359375 40.75 18.320313 44.785156 13.339844 44.785156 "/>
<path style=" stroke:none;fill-rule:nonzero;fill:rgb(100%,100%,100%);fill-opacity:1;" d="M 21.910156 35.953125 C 21.871094 37.882813 21.191406 39.652344 20.082031 41.0625 C 20.246094 40.492188 19.9375 39.78125 19.9375 39.78125 C 19.074219 40.570313 18.054688 40.957031 16.941406 41.046875 C 16.449219 42.050781 15.714844 42.855469 14.664063 43.375 C 14.664063 43.375 15.21875 43.921875 15.8125 43.980469 C 15.03125 44.210938 14.199219 44.34375 13.339844 44.34375 C 12.480469 44.34375 11.648438 44.210938 10.863281 43.980469 C 11.460938 43.921875 12.011719 43.375 12.011719 43.375 C 10.964844 42.855469 10.226563 42.050781 9.738281 41.046875 C 8.621094 40.957031 7.601563 40.570313 6.738281 39.78125 C 6.738281 39.78125 6.433594 40.492188 6.59375 41.0625 C 5.484375 39.652344 4.808594 37.882813 4.765625 35.953125 C 5.003906 36.5 5.691406 36.855469 5.691406 36.855469 C 5.859375 35.699219 6.402344 34.75 7.203125 33.972656 C 6.945313 32.882813 7 31.792969 7.484375 30.730469 C 7.484375 30.730469 6.714844 30.660156 6.21875 30.988281 C 7.289063 29.394531 8.886719 28.175781 10.757813 27.589844 C 10.296875 27.96875 10.148438 28.734375 10.148438 28.734375 C 11.304688 28.566406 12.367188 28.820313 13.339844 29.375 C 14.3125 28.820313 15.371094 28.566406 16.53125 28.734375 C 16.53125 28.734375 16.382813 27.96875 15.921875 27.589844 C 17.792969 28.175781 19.390625 29.394531 20.460938 30.992188 C 19.96875 30.660156 19.195313 30.730469 19.195313 30.730469 C 19.675781 31.792969 19.734375 32.882813 19.472656 33.972656 C 20.277344 34.75 20.820313 35.699219 20.984375 36.855469 C 20.984375 36.855469 21.671875 36.5 21.910156 35.953125 M 13.339844 32.671875 C 11.75 33.390625 10.359375 34.839844 10.359375 34.839844 C 10.550781 36.574219 11.5 38.351563 11.5 38.351563 C 13.207031 38.699219 15.1875 38.347656 15.1875 38.347656 C 16.050781 36.828125 16.324219 34.839844 16.324219 34.839844 C 15.148438 33.550781 13.339844 32.671875 13.339844 32.671875 "/>
<path style=" stroke:none;fill-rule:nonzero;fill:rgb(10.980225%,27.058411%,57.646179%);fill-opacity:1;" d="M 34.597656 46.417969 C 27.6875 46.417969 22.082031 40.816406 22.082031 33.902344 C 22.082031 26.988281 27.6875 21.382813 34.597656 21.382813 C 41.511719 21.382813 47.117188 26.988281 47.117188 33.902344 C 47.117188 40.816406 41.511719 46.417969 34.597656 46.417969 "/>
<path style=" stroke:none;fill-rule:nonzero;fill:rgb(100%,100%,100%);fill-opacity:1;" d="M 46.492188 34.160156 C 46.433594 36.835938 45.496094 39.289063 43.953125 41.25 C 44.179688 40.457031 43.753906 39.46875 43.753906 39.46875 C 42.558594 40.5625 41.144531 41.105469 39.59375 41.226563 C 38.914063 42.621094 37.898438 43.742188 36.441406 44.457031 C 36.441406 44.457031 37.210938 45.214844 38.035156 45.292969 C 36.945313 45.621094 35.792969 45.796875 34.597656 45.796875 C 33.40625 45.796875 32.253906 45.621094 31.164063 45.292969 C 31.988281 45.214844 32.757813 44.457031 32.757813 44.457031 C 31.300781 43.742188 30.28125 42.621094 29.601563 41.226563 C 28.054688 41.105469 26.640625 40.5625 25.445313 39.46875 C 25.445313 39.46875 25.019531 40.457031 25.246094 41.25 C 23.703125 39.289063 22.765625 36.835938 22.707031 34.164063 C 23.039063 34.921875 23.988281 35.410156 23.988281 35.410156 C 24.222656 33.804688 24.972656 32.488281 26.089844 31.414063 C 25.726563 29.902344 25.804688 28.390625 26.472656 26.914063 C 26.472656 26.914063 25.40625 26.816406 24.71875 27.277344 C 26.207031 25.0625 28.417969 23.375 31.015625 22.554688 C 30.378906 23.085938 30.171875 24.144531 30.171875 24.144531 C 31.777344 23.914063 33.253906 24.265625 34.597656 25.03125 C 35.945313 24.265625 37.421875 23.914063 39.027344 24.144531 C 39.027344 24.144531 38.820313 23.085938 38.183594 22.554688 C 40.78125 23.375 42.992188 25.0625 44.480469 27.277344 C 43.792969 26.816406 42.722656 26.914063 42.722656 26.914063 C 43.394531 28.390625 43.46875 29.902344 43.113281 31.414063 C 44.226563 32.488281 44.976563 33.804688 45.210938 35.410156 C 45.210938 35.410156 46.160156 34.921875 46.492188 34.160156 M 34.597656 29.609375 C 32.394531 30.609375 30.464844 32.621094 30.464844 32.621094 C 30.730469 35.023438 32.046875 37.484375 32.046875 37.484375 C 34.417969 37.972656 37.160156 37.480469 37.160156 37.480469 C 38.359375 35.378906 38.738281 32.613281 38.738281 32.613281 C 37.109375 30.828125 34.597656 29.609375 34.597656 29.609375 "/>
<path style=" stroke:none;fill-rule:nonzero;fill:rgb(90.586853%,23.921204%,14.509583%);fill-opacity:1;" d="M 47.371094 69.507813 L 47 71.914063 L 46.550781 71.914063 L 46.859375 69.921875 L 46.632813 69.921875 L 46.699219 69.507813 L 47.371094 69.507813 "/>
<path style=" stroke:none;fill-rule:nonzero;fill:rgb(90.586853%,23.921204%,14.509583%);fill-opacity:1;" d="M 44.894531 70.34375 L 44.90625 70.214844 C 44.976563 69.765625 45.148438 69.46875 45.640625 69.46875 C 46.027344 69.46875 46.238281 69.667969 46.171875 70.082031 C 46.136719 70.328125 46.019531 70.523438 45.882813 70.734375 L 45.371094 71.5 L 45.910156 71.5 L 45.847656 71.914063 L 44.617188 71.914063 L 45.300781 70.917969 C 45.460938 70.6875 45.691406 70.363281 45.730469 70.097656 C 45.753906 69.972656 45.742188 69.800781 45.589844 69.800781 C 45.410156 69.800781 45.363281 70.058594 45.34375 70.191406 L 45.324219 70.34375 L 44.894531 70.34375 "/>
<path style=" stroke:none;fill-rule:nonzero;fill:rgb(90.586853%,23.921204%,14.509583%);fill-opacity:1;" d="M 43.570313 69.507813 L 43.757813 71.914063 L 43.265625 71.914063 L 43.238281 71.511719 L 42.773438 71.511719 L 42.625 71.914063 L 42.164063 71.914063 L 43.082031 69.507813 Z M 43.210938 70.492188 L 43.21875 70.128906 L 43.210938 70.128906 L 43.105469 70.492188 L 42.902344 71.132813 L 43.230469 71.132813 L 43.210938 70.492188 "/>
<path style=" stroke:none;fill-rule:nonzero;fill:rgb(90.586853%,23.921204%,14.509583%);fill-opacity:1;" d="M 42.507813 69.507813 L 42.4375 69.953125 L 42.070313 69.953125 L 41.769531 71.914063 L 41.308594 71.914063 L 41.609375 69.953125 L 41.246094 69.953125 L 41.316406 69.507813 L 42.507813 69.507813 "/>
<path style=" stroke:none;fill-rule:nonzero;fill:rgb(90.586853%,23.921204%,14.509583%);fill-opacity:1;" d="M 40.773438 69.507813 L 40.960938 71.914063 L 40.46875 71.914063 L 40.441406 71.511719 L 39.972656 71.511719 L 39.828125 71.914063 L 39.367188 71.914063 L 40.28125 69.507813 Z M 40.414063 70.492188 L 40.417969 70.128906 L 40.410156 70.128906 L 40.304688 70.492188 L 40.109375 71.132813 L 40.433594 71.132813 L 40.414063 70.492188 "/>
<path style=" stroke:none;fill-rule:nonzero;fill:rgb(90.586853%,23.921204%,14.509583%);fill-opacity:1;" d="M 39.523438 70.570313 L 39.492188 70.761719 C 39.414063 71.273438 39.1875 71.953125 38.558594 71.953125 C 37.929688 71.953125 37.832031 71.257813 37.914063 70.722656 C 38.003906 70.167969 38.28125 69.46875 38.941406 69.46875 C 39.300781 69.46875 39.496094 69.695313 39.542969 70.039063 L 39.066406 70.21875 C 39.0625 70.09375 39.054688 69.902344 38.878906 69.902344 C 38.566406 69.886719 38.445313 70.484375 38.410156 70.710938 C 38.371094 70.960938 38.300781 71.515625 38.644531 71.515625 C 38.878906 71.515625 38.96875 71.191406 38.992188 71.019531 L 38.695313 71.019531 L 38.765625 70.570313 L 39.523438 70.570313 "/>
<path style=" stroke:none;fill-rule:nonzero;fill:rgb(90.586853%,23.921204%,14.509583%);fill-opacity:1;" d="M 37.53125 69.507813 L 37.722656 71.914063 L 37.230469 71.914063 L 37.207031 71.511719 L 36.734375 71.511719 L 36.589844 71.914063 L 36.128906 71.914063 L 37.042969 69.507813 Z M 37.175781 70.492188 L 37.179688 70.128906 L 37.175781 70.128906 L 37.066406 70.492188 L 36.871094 71.132813 L 37.195313 71.132813 L 37.175781 70.492188 "/>
<path style=" stroke:none;fill-rule:nonzero;fill:rgb(90.586853%,23.921204%,14.509583%);fill-opacity:1;" d="M 35.058594 69.507813 L 35.066406 70.929688 L 35.070313 70.929688 L 35.476563 69.507813 L 36.097656 69.507813 L 35.972656 71.914063 L 35.496094 71.914063 L 35.652344 70.179688 L 35.648438 70.179688 L 35.480469 70.773438 L 35.105469 71.914063 L 34.746094 71.914063 L 34.699219 70.761719 L 34.703125 70.226563 L 34.710938 70.179688 L 34.707031 70.179688 L 34.371094 71.914063 L 33.875 71.914063 L 34.449219 69.507813 L 35.058594 69.507813 "/>
<path style=" stroke:none;fill-rule:nonzero;fill:rgb(90.586853%,23.921204%,14.509583%);fill-opacity:1;" d="M 33.527344 69.507813 L 33.71875 71.914063 L 33.222656 71.914063 L 33.199219 71.511719 L 32.726563 71.511719 L 32.582031 71.914063 L 32.121094 71.914063 L 33.039063 69.507813 Z M 33.167969 70.492188 L 33.171875 70.128906 L 33.167969 70.128906 L 33.058594 70.492188 L 32.863281 71.132813 L 33.1875 71.132813 L 33.167969 70.492188 "/>
<path style=" stroke:none;fill-rule:nonzero;fill:rgb(90.586853%,23.921204%,14.509583%);fill-opacity:1;" d="M 31.550781 69.507813 L 31.691406 70.160156 L 31.710938 70.28125 L 31.714844 70.28125 L 31.796875 70.101563 L 32.09375 69.507813 L 32.613281 69.507813 L 31.875 70.761719 L 31.695313 71.914063 L 31.234375 71.914063 L 31.414063 70.761719 L 31.042969 69.507813 L 31.550781 69.507813 "/>
<path style=" stroke:none;fill-rule:nonzero;fill:rgb(90.586853%,23.921204%,14.509583%);fill-opacity:1;" d="M 29.996094 70.050781 C 29.914063 69.964844 29.8125 69.894531 29.679688 69.894531 C 29.535156 69.894531 29.429688 69.980469 29.40625 70.132813 C 29.347656 70.527344 30.054688 70.550781 29.953125 71.203125 C 29.890625 71.628906 29.597656 71.953125 29.160156 71.953125 C 29.027344 71.953125 28.871094 71.910156 28.78125 71.832031 L 28.847656 71.378906 C 28.945313 71.453125 29.046875 71.507813 29.179688 71.507813 C 29.332031 71.507813 29.46875 71.402344 29.492188 71.246094 C 29.523438 71.058594 29.386719 70.988281 29.269531 70.890625 C 29.03125 70.707031 28.894531 70.527344 28.945313 70.175781 C 29.007813 69.796875 29.273438 69.46875 29.671875 69.46875 C 29.824219 69.46875 29.949219 69.507813 30.066406 69.585938 L 29.996094 70.050781 "/>
<path style=" stroke:none;fill-rule:nonzero;fill:rgb(90.586853%,23.921204%,14.509583%);fill-opacity:1;" d="M 28.910156 69.507813 L 28.839844 69.953125 L 28.472656 69.953125 L 28.167969 71.914063 L 27.710938 71.914063 L 28.011719 69.953125 L 27.648438 69.953125 L 27.71875 69.507813 L 28.910156 69.507813 "/>
<path style=" stroke:none;fill-rule:nonzero;fill:rgb(90.586853%,23.921204%,14.509583%);fill-opacity:1;" d="M 25.925781 71.914063 L 26.296875 69.507813 L 26.761719 69.507813 C 27.054688 69.507813 27.578125 69.539063 27.476563 70.195313 C 27.4375 70.460938 27.300781 70.6875 27.046875 70.820313 L 27.285156 71.914063 L 26.796875 71.914063 L 26.5625 70.804688 L 26.558594 70.804688 L 26.386719 71.914063 Z M 26.597656 70.539063 L 26.675781 70.546875 C 26.890625 70.546875 26.996094 70.398438 27.027344 70.199219 C 27.050781 70.027344 26.996094 69.890625 26.757813 69.898438 L 26.695313 69.898438 L 26.597656 70.539063 "/>
<path style=" stroke:none;fill-rule:nonzero;fill:rgb(90.586853%,23.921204%,14.509583%);fill-opacity:1;" d="M 25.890625 70.710938 C 25.753906 71.617188 25.289063 71.953125 24.882813 71.953125 C 24.46875 71.953125 24.113281 71.617188 24.253906 70.710938 C 24.390625 69.800781 24.851563 69.46875 25.265625 69.46875 C 25.675781 69.46875 26.03125 69.800781 25.890625 70.710938 M 24.949219 71.515625 C 25.253906 71.515625 25.371094 70.902344 25.402344 70.710938 C 25.433594 70.496094 25.503906 69.902344 25.195313 69.902344 C 24.890625 69.902344 24.777344 70.496094 24.746094 70.710938 C 24.714844 70.902344 24.644531 71.515625 24.949219 71.515625 "/>
<path style=" stroke:none;fill-rule:nonzero;fill:rgb(90.586853%,23.921204%,14.509583%);fill-opacity:1;" d="M 22.664063 71.914063 L 23.035156 69.507813 L 23.515625 69.507813 C 23.613281 69.507813 24.320313 69.441406 24.199219 70.21875 C 24.128906 70.667969 23.808594 70.925781 23.378906 70.925781 L 23.277344 70.921875 L 23.128906 71.914063 Z M 23.339844 70.535156 C 23.5625 70.542969 23.699219 70.457031 23.738281 70.214844 C 23.765625 70.039063 23.722656 69.898438 23.523438 69.898438 L 23.433594 69.898438 L 23.339844 70.535156 "/>
<path style=" stroke:none;fill-rule:nonzero;fill:rgb(90.586853%,23.921204%,14.509583%);fill-opacity:1;" d="M 22.535156 70.050781 C 22.457031 69.964844 22.351563 69.894531 22.222656 69.894531 C 22.078125 69.894531 21.972656 69.980469 21.949219 70.132813 C 21.886719 70.527344 22.59375 70.550781 22.492188 71.203125 C 22.429688 71.628906 22.140625 71.953125 21.699219 71.953125 C 21.570313 71.953125 21.414063 71.910156 21.320313 71.832031 L 21.390625 71.378906 C 21.488281 71.453125 21.585938 71.507813 21.722656 71.507813 C 21.875 71.507813 22.011719 71.402344 22.035156 71.246094 C 22.0625 71.058594 21.929688 70.988281 21.808594 70.890625 C 21.570313 70.707031 21.433594 70.527344 21.488281 70.175781 C 21.546875 69.796875 21.8125 69.46875 22.214844 69.46875 C 22.363281 69.46875 22.492188 69.507813 22.605469 69.585938 L 22.535156 70.050781 "/>
<path style=" stroke:none;fill-rule:nonzero;fill:rgb(10.980225%,27.058411%,57.646179%);fill-opacity:1;" d="M 56.183594 40.898438 L 54.382813 39.503906 L 54.949219 38.890625 L 51.191406 33.882813 L 49.765625 37.652344 L 47.421875 34.738281 C 47.421875 34.738281 46.546875 36.183594 46.265625 36.664063 L 39.589844 36.289063 L 39.582031 36.285156 L 35.886719 32.628906 L 34.605469 36.113281 L 25.6875 36.003906 L 27.910156 38.65625 L 26.355469 39.886719 C 26.355469 39.886719 26.355469 39.882813 26.355469 39.882813 L 26.339844 39.667969 L 23.347656 37.460938 L 22.472656 38.6875 L 19.839844 35.882813 C 19.839844 35.882813 18.929688 37.070313 18.519531 37.636719 L 16.222656 35.507813 C 16.222656 35.507813 15.425781 36.601563 15.050781 37.136719 L 12.699219 34.765625 L 8.226563 39.5625 L 8.332031 44.507813 L 9.683594 43.039063 C 9.429688 44.933594 9.257813 46.921875 9.226563 48.40625 L 9.214844 48.945313 L 14.105469 54.226563 L 14.207031 50.96875 C 14.207031 50.929688 14.210938 50.886719 14.210938 50.84375 L 17.441406 54.21875 L 17.472656 50.960938 L 19.800781 53.972656 L 20.453125 51.269531 C 20.515625 51.019531 20.578125 50.769531 20.648438 50.523438 L 22.671875 53.136719 C 22.671875 53.136719 23.992188 51.175781 24.707031 49.960938 L 27.695313 54.128906 C 27.695313 54.128906 28.191406 52.140625 28.402344 51.3125 L 30.234375 54.359375 L 30.367188 53.992188 C 31.105469 55.300781 32.945313 58.546875 32.945313 58.546875 C 32.945313 58.546875 33.757813 55.804688 34.175781 54.453125 L 34.175781 55.4375 L 56.246094 55.4375 L 54.484375 50.796875 L 54.101563 50.796875 C 55.207031 49.375 56.570313 47.226563 57.222656 44.671875 C 57.59375 44.386719 58.03125 44.0625 58.03125 44.0625 L 62.085938 39.183594 L 56.183594 40.898438 "/>
<path style=" stroke:none;fill-rule:nonzero;fill:rgb(100%,100%,100%);fill-opacity:1;" d="M 55.574219 54.972656 L 54.164063 51.261719 L 53.730469 51.261719 L 53.5625 50.730469 C 54.601563 49.433594 56.152344 47.144531 56.816406 44.398438 C 57.222656 44.082031 57.707031 43.722656 57.707031 43.722656 L 60.757813 40.050781 L 55.84375 41.480469 L 55.828125 41.210938 L 53.695313 39.558594 L 54.34375 38.859375 L 51.328125 34.835938 L 49.910156 38.574219 L 47.476563 35.546875 L 46.398438 37.347656 L 46.328125 37.132813 C 45.527344 37.082031 42.082031 36.882813 39.210938 36.734375 L 39.253906 36.613281 L 36.070313 33.464844 L 34.925781 36.578125 L 26.691406 36.480469 L 28.570313 38.722656 C 28.378906 38.878906 25.988281 40.773438 25.988281 40.773438 C 25.953125 40.75 25.890625 39.914063 25.890625 39.914063 L 23.453125 38.113281 L 22.523438 39.414063 L 19.875 36.601563 C 19.875 36.601563 18.941406 37.820313 18.59375 38.339844 L 16.289063 36.203125 C 16.289063 36.203125 15.457031 37.34375 15.121094 37.863281 L 12.710938 35.433594 L 8.695313 39.738281 L 8.773438 43.34375 C 8.773438 43.34375 10.289063 41.695313 10.367188 41.609375 C 10.011719 43.761719 9.730469 46.453125 9.691406 48.417969 L 9.683594 48.765625 L 13.675781 53.078125 L 13.742188 50.953125 C 13.753906 50.585938 13.773438 50.179688 13.804688 49.75 L 16.988281 53.070313 L 17.007813 50.933594 C 17.011719 50.613281 17.027344 50.179688 17.066406 49.679688 L 19.574219 52.925781 L 20.003906 51.160156 C 20.144531 50.582031 20.296875 50.027344 20.457031 49.519531 L 22.644531 52.34375 C 22.644531 52.34375 23.949219 50.40625 24.664063 49.101563 L 27.488281 53.042969 C 27.488281 53.042969 28.117188 50.515625 28.230469 50.128906 L 30.125 53.277344 L 30.265625 52.875 L 30.269531 52.882813 L 32.808594 57.367188 C 32.808594 57.367188 33.84375 53.875 34.210938 52.855469 C 34.335938 53.066406 34.519531 53.375 34.644531 53.574219 L 34.644531 54.972656 Z M 33.539063 40.484375 C 33.511719 40.5625 33.484375 40.65625 33.449219 40.75 L 33.230469 40.480469 Z M 41.265625 41.546875 L 41.113281 41.386719 L 39.941406 40.164063 C 40.777344 40.191406 41.59375 40.21875 42.03125 40.230469 C 41.78125 40.5625 41.519531 41.023438 41.265625 41.546875 M 44.632813 40.996094 L 43.421875 39.949219 L 43.40625 39.9375 L 45.449219 39.21875 C 45.195313 39.742188 44.917969 40.339844 44.632813 40.996094 "/>
<path style=" stroke:none;fill-rule:nonzero;fill:rgb(10.980225%,27.058411%,57.646179%);fill-opacity:1;" d="M 58.332031 41.671875 C 58.332031 41.671875 57.714844 42.441406 57.128906 43.066406 C 56.976563 43.175781 56.539063 43.507813 56.035156 43.902344 C 55.144531 48.070313 51.9375 51.265625 51.9375 51.265625 L 50.082031 48.5625 C 50.082031 48.5625 50.355469 47.5 50.539063 46.878906 C 49.609375 47.550781 47.808594 51.257813 47.808594 51.257813 L 46.199219 49.296875 L 46.878906 46.960938 C 45.199219 48.695313 43.847656 51.253906 43.847656 51.253906 L 42.425781 49.476563 L 42.664063 48.683594 C 42.085938 49.234375 40.859375 51.011719 40.859375 51.011719 L 39.648438 48.753906 L 40.191406 46.886719 C 38.761719 48.21875 36.875 51.078125 36.875 51.078125 L 35.34375 49.261719 L 35.589844 48.078125 C 34.097656 49.753906 32.546875 55.132813 32.546875 55.132813 L 31.027344 52.453125 C 31.027344 52.453125 31.828125 49.195313 32.910156 45.441406 C 31.257813 47.457031 29.917969 51.246094 29.917969 51.246094 L 28.59375 49.039063 C 28.59375 49.039063 29.351563 45.640625 29.847656 44.449219 C 28.359375 45.859375 27.09375 51 27.09375 51 L 25.46875 48.730469 C 25.46875 48.730469 26.535156 44.554688 27.671875 41.613281 L 26.355469 42.59375 C 25.394531 46.71875 22.597656 50.859375 22.597656 50.859375 L 20.65625 48.351563 C 20.65625 48.351563 20.769531 47.46875 21.09375 46.097656 C 20.226563 47.082031 19.5 49.527344 19.15625 50.957031 L 17.203125 48.433594 C 17.203125 48.433594 17.707031 43.800781 18.363281 42.125 C 16.199219 44.605469 16.136719 50.925781 16.136719 50.925781 L 13.839844 48.527344 C 13.839844 48.527344 14.460938 43.386719 15.050781 41.410156 C 13.097656 43.503906 12.871094 50.925781 12.871094 50.925781 L 10.5625 48.433594 C 10.621094 45.441406 11.269531 40.609375 11.84375 38.933594 C 10.949219 39.6875 9.597656 41.160156 9.597656 41.160156 L 9.570313 40.074219 L 12.730469 36.691406 L 14.695313 38.671875 C 14.390625 39.769531 14.210938 41.25 14.210938 41.25 C 15.191406 39.1875 16.414063 37.507813 16.414063 37.507813 L 18.375 39.324219 C 18.375 39.324219 17.921875 40.425781 17.761719 41.308594 C 17.761719 41.308594 19.605469 38.257813 19.964844 37.941406 L 21.886719 40.007813 C 21.886719 40.007813 20.289063 43.484375 20.113281 46.375 C 20.929688 45.453125 21.371094 44.820313 21.425781 44.742188 C 22.355469 41.335938 23.671875 39.359375 23.671875 39.359375 L 25.027344 40.359375 L 25.042969 41.226563 C 25.261719 41.300781 25.894531 41.742188 26.046875 41.859375 C 26.96875 41.113281 28.636719 39.789063 28.636719 39.789063 L 30.140625 41.507813 C 30.140625 41.507813 29.679688 42.832031 29.582031 43.09375 C 30.34375 41.90625 31.652344 40.203125 31.652344 40.203125 L 33.128906 42.011719 C 33.128906 42.011719 31.910156 44.46875 31.660156 45.667969 C 32.382813 45.074219 33.234375 44.1875 33.347656 44.078125 C 33.96875 42.152344 34.699219 39.882813 34.957031 39.164063 L 30.042969 39.121094 L 28.578125 37.375 L 35.53125 37.457031 L 36.421875 35.039063 L 38.242188 36.835938 L 37.972656 37.546875 C 41.457031 37.714844 46.28125 38 46.28125 38 L 42.386719 39.371094 C 42.386719 39.371094 38.214844 39.226563 37.375 39.226563 C 36.332031 42.304688 34.664063 47.40625 34.484375 47.996094 C 34.394531 48.304688 34.394531 48.402344 34.398438 48.414063 C 34.40625 48.414063 35.710938 47.257813 35.816406 47.179688 C 36.898438 41.914063 38.976563 40.417969 38.976563 40.417969 L 40.484375 41.992188 L 40.730469 44.316406 L 38.261719 46.269531 C 37.972656 47.3125 37.867188 48.347656 37.867188 48.347656 C 38.355469 47.976563 40.191406 46.386719 40.378906 46.253906 C 40.378906 46.253906 41.851563 41.671875 42.851563 40.605469 L 44.457031 42 L 44.648438 43.238281 C 46.113281 39.46875 47.574219 37.0625 47.574219 37.0625 L 49.167969 39.039063 C 49.167969 39.039063 47.46875 42.398438 45.605469 47.285156 C 45.996094 47.089844 47.0625 46.359375 47.152344 46.296875 C 48.535156 42.375 49.664063 40.410156 49.664063 40.410156 L 51.273438 42.214844 C 50.074219 44.625 49.074219 47.324219 49.015625 47.476563 C 49.273438 47.308594 50.4375 46.460938 50.71875 46.316406 C 51.984375 42.238281 53.480469 40.496094 53.480469 40.496094 L 54.984375 41.660156 L 55.046875 42.621094 C 56.136719 42.316406 58.332031 41.671875 58.332031 41.671875 M 24.195313 42.605469 C 24.128906 42.519531 23.96875 42.375 23.816406 42.289063 C 23.816406 42.289063 22.773438 44.882813 22.382813 46.734375 C 23.265625 45.195313 23.847656 43.589844 24.195313 42.605469 M 38.699219 45.066406 L 39.738281 44.195313 L 39.589844 43.402344 C 39.175781 43.964844 38.699219 45.066406 38.699219 45.066406 M 44.265625 44.144531 L 43.660156 43.710938 C 43.296875 44.355469 42.1875 47.0625 41.972656 48.460938 L 42.867188 48.011719 C 43.132813 47.265625 43.761719 45.496094 44.265625 44.144531 M 54.042969 43.40625 C 53.996094 43.359375 53.773438 43.195313 53.605469 43.074219 C 53.453125 43.441406 52.355469 46.011719 52.042969 47.601563 C 52.734375 46.367188 53.808594 44.28125 54.042969 43.40625 "/>
<path style=" stroke:none;fill-rule:nonzero;fill:rgb(10.980225%,27.058411%,57.646179%);fill-opacity:1;" d="M 51.097656 41.074219 L 53.210938 38.800781 L 51.582031 36.628906 L 50.71875 38.898438 C 50.71875 38.898438 51.0625 40.410156 51.097656 41.074219 "/>
<path style=" stroke:none;fill-rule:nonzero;fill:rgb(10.980225%,27.058411%,57.646179%);fill-opacity:1;" d="M 36.195313 52.132813 L 36.183594 52.132813 L 36.175781 52.140625 L 35.761719 52.871094 L 35.339844 52.140625 L 35.335938 52.132813 L 34.789063 52.132813 L 34.808594 52.164063 L 35.515625 53.335938 L 35.515625 54.101563 L 36.007813 54.101563 L 36.007813 53.335938 L 36.710938 52.164063 L 36.730469 52.132813 L 36.195313 52.132813 "/>
<path style=" stroke:none;fill-rule:nonzero;fill:rgb(10.980225%,27.058411%,57.646179%);fill-opacity:1;" d="M 39.113281 54.070313 L 39.121094 54.101563 L 38.625 54.101563 L 38.621094 54.085938 L 38.496094 53.683594 L 37.824219 53.683594 L 37.699219 54.085938 L 37.695313 54.101563 L 37.199219 54.101563 L 37.210938 54.070313 L 37.898438 52.144531 L 37.902344 52.132813 L 38.421875 52.132813 L 38.425781 52.144531 Z M 37.929688 53.355469 L 38.390625 53.355469 L 38.160156 52.636719 Z M 37.929688 53.355469 "/>
<path style=" stroke:none;fill-rule:nonzero;fill:rgb(10.980225%,27.058411%,57.646179%);fill-opacity:1;" d="M 49.769531 54.070313 L 49.78125 54.101563 L 49.285156 54.101563 L 49.277344 54.085938 L 49.152344 53.683594 L 48.484375 53.683594 L 48.355469 54.085938 L 48.351563 54.101563 L 47.855469 54.101563 L 47.867188 54.070313 L 48.554688 52.144531 L 48.5625 52.132813 L 49.074219 52.132813 L 49.078125 52.144531 Z M 48.589844 53.355469 L 49.046875 53.355469 L 48.816406 52.636719 Z M 48.589844 53.355469 "/>
<path style=" stroke:none;fill-rule:nonzero;fill:rgb(10.980225%,27.058411%,57.646179%);fill-opacity:1;" d="M 54.210938 54.070313 L 54.222656 54.101563 L 53.722656 54.101563 L 53.71875 54.085938 L 53.59375 53.683594 L 52.925781 53.683594 L 52.796875 54.085938 L 52.792969 54.101563 L 52.296875 54.101563 L 52.304688 54.070313 L 52.996094 52.144531 L 53.003906 52.132813 L 53.519531 52.132813 L 53.523438 52.144531 Z M 53.027344 53.355469 L 53.488281 53.355469 L 53.257813 52.636719 Z M 53.027344 53.355469 "/>
<path style=" stroke:none;fill-rule:nonzero;fill:rgb(10.980225%,27.058411%,57.646179%);fill-opacity:1;" d="M 44.59375 54.070313 L 44.605469 54.101563 L 44.109375 54.101563 L 44.105469 54.085938 L 43.976563 53.683594 L 43.308594 53.683594 L 43.179688 54.085938 L 43.175781 54.101563 L 42.683594 54.101563 L 42.691406 54.070313 L 43.382813 52.144531 L 43.386719 52.132813 L 43.902344 52.132813 L 43.90625 52.144531 Z M 43.414063 53.355469 L 43.871094 53.355469 L 43.644531 52.636719 Z M 43.414063 53.355469 "/>
<path style=" stroke:none;fill-rule:nonzero;fill:rgb(10.980225%,27.058411%,57.646179%);fill-opacity:1;" d="M 41.3125 52.132813 L 41.296875 52.132813 L 41.292969 52.144531 L 40.875 53.5 L 40.460938 52.144531 L 40.453125 52.132813 L 39.882813 52.132813 L 39.882813 54.101563 L 40.324219 54.101563 L 40.324219 54.078125 L 40.304688 52.792969 L 40.710938 54.085938 L 40.714844 54.101563 L 41.035156 54.101563 L 41.039063 54.085938 L 41.449219 52.792969 L 41.425781 54.078125 L 41.425781 54.101563 L 41.867188 54.101563 L 41.867188 52.132813 L 41.3125 52.132813 "/>
<path style=" stroke:none;fill-rule:nonzero;fill:rgb(10.980225%,27.058411%,57.646179%);fill-opacity:1;" d="M 46.171875 52.484375 C 46.472656 52.484375 46.578125 52.703125 46.613281 52.78125 L 46.617188 52.789063 L 46.625 52.800781 L 47.125 52.800781 L 47.113281 52.769531 L 47.113281 52.765625 C 47.085938 52.683594 47.039063 52.550781 46.925781 52.40625 C 46.757813 52.203125 46.476563 52.082031 46.179688 52.082031 C 45.691406 52.082031 45.203125 52.398438 45.203125 53.117188 C 45.203125 53.433594 45.300781 53.699219 45.492188 53.882813 C 45.667969 54.058594 45.914063 54.152344 46.191406 54.152344 C 46.5 54.152344 46.660156 54.023438 46.765625 53.921875 L 46.78125 54.082031 L 46.785156 54.101563 L 47.125 54.101563 L 47.125 53.027344 L 46.214844 53.027344 L 46.214844 53.382813 L 46.636719 53.382813 L 46.546875 53.566406 C 46.488281 53.648438 46.375 53.746094 46.183594 53.746094 C 46.054688 53.746094 45.941406 53.699219 45.855469 53.613281 C 45.75 53.507813 45.691406 53.347656 45.691406 53.148438 C 45.691406 53.117188 45.695313 52.835938 45.789063 52.699219 C 45.886719 52.554688 46.011719 52.484375 46.171875 52.484375 "/>
<path style=" stroke:none;fill-rule:nonzero;fill:rgb(10.980225%,27.058411%,57.646179%);fill-opacity:1;" d="M 50.128906 52.132813 L 50.109375 52.132813 L 50.109375 52.535156 L 50.75 52.535156 L 50.75 54.101563 L 51.234375 54.101563 L 51.234375 52.535156 L 51.875 52.535156 L 51.875 52.132813 L 50.128906 52.132813 "/>
</g>
</svg>
