<svg xmlns="http://www.w3.org/2000/svg" xml:space="preserve" overflow="visible" height="300" viewBox="0 0 277.657 300" width="277.66" version="1.1" enable-background="new 0 0 277.657 300"><title>CD Cobreloa</title>
<path d="M257.42,146.57c0-22.38-19.642-38.282-31.35-45.771-23.011-14.715-54.006-22.819-87.276-22.819-64.301,0-118.63,31.411-118.63,68.59s54.326,68.589,118.63,68.589c64.31,0,118.63-31.41,118.63-68.59z" fill="none"/>
<path d="M277.59,146.57c0-49.02-62.142-88.756-138.79-88.756-76.659-0.003-138.8,39.733-138.8,88.756,0,43.99,50.057,80.484,115.73,87.514v12.142h-64.32v29.58h64.32v24.2h46.134v-24.2h64.323v-29.578h-64.32v-12.142c65.67-7.03,115.73-43.52,115.73-87.51zm-257.42,0c0-37.179,54.326-68.59,118.63-68.59,33.27,0,64.265,8.104,87.276,22.819,11.708,7.489,31.35,23.391,31.35,45.771,0,37.179-54.323,68.589-118.62,68.589-64.317,0-118.64-31.41-118.64-68.59z"/>
<path d="M274.9,146.57c0-22.758-13.996-44.243-39.412-60.494-25.79-16.493-60.13-25.576-96.7-25.576-75.045,0-136.1,38.61-136.1,86.07,0,43.077,50.311,78.861,115.73,85.098v17.247h-64.32v24.2h64.32v24.199h40.755v-24.199h64.323v-24.2h-64.33v-17.247c65.41-6.24,115.73-42.03,115.73-85.1zm-257.42,0c0-38.637,55.555-71.279,121.32-71.279,33.777,0,65.287,8.256,88.725,23.244,21.014,13.439,32.59,30.497,32.59,48.035,0,38.637-55.556,71.278-121.32,71.278-65.757-0.01-121.31-32.65-121.31-71.28z" fill="#FF7C21"/>
<path d="M25.771,83.15l0.021,0.002c27.206-21.237,67.757-34.752,113-34.752,38.847,0,75.501,9.76,103.21,27.479,3.519,2.248,6.835,4.598,9.965,7.032l25.618-41.071,0.07-0.116c-3.097-2.274-6.26-4.5-9.577-6.622-35.39-22.634-81.3-35.102-129.28-35.102-54.684,0-103.48,15.855-138.78,41.854l25.763,41.296z"/>
<path d="M3.668,42.641c2.321,3.718,20.395,32.694,22.892,36.696,28.658-21.351,69.296-33.626,112.23-33.626,39.354,0,76.522,9.91,104.66,27.902,2.662,1.702,5.207,3.584,7.738,5.462,2.525-4.046,20.652-33.109,22.829-36.596-2.511-1.736-7.39-5.11-7.39-5.11-34.971-22.364-80.371-34.68-127.84-34.68-51.318,0-99.142,14.219-135.12,39.952z" fill="#FF7C21"/>
<path d="M35.714,42.751c-1.62-2.159-4.845-2.699-7.416-1.281-4.645,2.565-4.209,7.483-1.935,11.604,2.164,3.92,6.092,6.911,10.74,4.348,3.164-1.746,3.744-4.905,2.429-8.221l5.01-2.765c2.71,6.158,0.73,12.152-5.039,15.335-7.282,4.02-14.568,0.948-18.315-5.843-3.857-6.987-2.573-14.789,4.71-18.809,5.173-2.857,11.2-2.224,14.826,2.867l-5.01,2.765z"/>
<path d="M58.538,22.876c7.88-2.673,14.508,1.639,17.073,9.196,2.489,7.344-0.15,14.796-8.03,17.47-7.877,2.673-14.508-1.639-16.997-8.983-2.563-7.558,0.077-15.012,7.954-17.683zm7.45,21.96c5.025-1.704,5.464-6.625,4.025-10.866-1.51-4.456-4.852-8.093-9.878-6.389s-5.464,6.623-3.955,11.079c1.439,4.244,4.779,7.881,9.808,6.176z"/>
<path d="M82.37,16.629l12.452-2.221c5.041-0.901,8.741,0.121,9.621,5.05,0.462,2.594-0.509,4.642-2.61,6.165,3.39,0.35,5.464,2.542,6.053,5.84,0.958,5.375-3.188,8.484-7.969,9.337l-12.822,2.29-4.719-26.461zm7.731,9.672l5.892-1.05c2.038-0.365,3.393-1.563,2.997-3.787-0.449-2.519-2.471-2.694-4.545-2.324l-5.446,0.974,1.102,6.187zm2.003,11.23l6.226-1.113c2.297-0.41,4.167-1.507,3.679-4.249-0.483-2.707-2.379-3.477-4.863-3.033l-6.336,1.132,1.293,7.263z"/>
<path d="M115.48,11.541l14.479-0.66c4.813-0.22,8.012,2.989,8.198,7.051,0.145,3.159-1.026,5.585-3.943,6.924l0.002,0.076c2.93,0.62,3.886,3.403,4.199,6.102,0.189,1.686,0.294,4.848,1.417,6.302l-5.905,0.271c-0.791-1.66-0.835-4.259-1.231-6.389-0.544-2.802-1.691-3.994-4.661-3.857l-5.906,0.268,0.478,10.493-5.903,0.268-1.24-26.849zm6.46,11.876l6.47-0.294c2.631-0.118,4.01-1.313,3.886-4.02-0.118-2.594-1.599-3.658-4.23-3.537l-6.47,0.294,0.34,7.557z"/>
<path d="M149.54,10.803l20.043,1.542-0.381,4.955-14.15-1.09-0.441,5.743,12.985,1-0.353,4.577-12.984-0.998-0.507,6.57,14.452,1.111-0.38,4.955-20.346-1.565,2.06-26.8z"/>
<path d="M180.66,13.957l5.798,1.147-4.257,21.492,12.851,2.544-0.966,4.874-18.648-3.692,5.23-26.365z"/>
<path d="M221.04,23.625c7.854,2.747,10.422,10.226,7.789,17.759-2.561,7.321-9.228,11.569-17.081,8.823-7.854-2.747-10.423-10.225-7.864-17.546,2.63-7.532,9.3-11.78,17.15-9.036zm-7.65,21.891c5.01,1.752,8.387-1.854,9.864-6.083,1.553-4.44,1.161-9.364-3.85-11.116-5.012-1.751-8.387,1.854-9.938,6.294-1.47,4.231-1.08,9.152,3.93,10.905z"/>
<path d="M250.27,37.098l5.294,2.951-4.31,28.37-5.358-2.988,1.139-6.218-8.78-4.895-4.756,4.201-5.228-2.915,22.01-18.506zm-8.52,14.125l6.082,3.392,1.843-10.264-0.065-0.037-7.85,6.909z"/>
<path d="M75.519,258.34c-0.323-1.881-2.129-2.873-4.645-2.873-3.873,0-5.356,2.772-5.356,5.54,0,2.772,1.483,5.541,5.356,5.541,2.807,0,4.419-1.308,4.645-3.45h6.003c-0.323,4.811-4.679,7.631-10.519,7.631-6.969,0-11.488-4.313-11.488-9.722s4.52-9.721,11.488-9.721c4.968,0,10.356,2.558,10.519,7.054h-6.003z"/>
<path d="M94.783,251.68h6.1l8.613,18.665h-6.257l-1.421-3.346h-8.035l-1.452,3.346h-6.163l8.623-18.66zm0.388,11.71h5.226l-2.55-6.533h-0.063l-2.616,6.53z"/>
<path d="M115.05,251.68h6v14.479h10.745v4.186h-16.745v-18.671z"/>
<path d="M144.83,251.68h6.097l8.616,18.665h-6.261l-1.418-3.346h-8.035l-1.452,3.346h-6.162l8.6-18.66zm0.38,11.71h5.228l-2.549-6.533h-0.063l-2.62,6.53z"/>
<path d="M165.12,251.68h8.842l3.968,12.441h0.065l3.967-12.441h8.842v18.665h-5.646v-14.169h-0.065l-4.84,14.169h-4.582l-4.84-14.169h-0.065v14.169h-5.646v-18.661z"/>
<path d="M205.04,251.68h6.1l8.615,18.665h-6.26l-1.421-3.346h-8.035l-1.451,3.346h-6.163l8.61-18.66zm0.38,11.71h5.225l-2.547-6.533h-0.065l-2.6,6.53z"/>
<path d="M67.332,146.38c0,39.407,32.059,71.462,71.462,71.462,39.404,0,71.46-32.056,71.46-71.462,0-39.403-32.057-71.459-71.46-71.459-39.399,0.002-71.458,32.059-71.458,71.459z"/>
<circle cy="146.38" cx="138.79" r="68.772" fill="#FC0"/>
<path d="M210.18,143.47c-0.562-13.891-5.102-26.771-12.52-37.531l-10.428-0.538-0.465-0.966-26.88-19.515-0.662-0.121-0.596-7.05c-6.3-1.825-12.948-2.82-19.829-2.82-6.879,0-13.528,0.995-19.828,2.82l-0.599,7.061-0.641,0.097-26.873,19.502-0.559,0.995-10.37,0.536c-7.415,10.758-11.958,23.638-12.52,37.531l5.165,6.948v1.81c0,4.98,6.843,27.232,9.726,30.118l0.951,0.951v7.981c10.162,12.552,24.476,21.603,40.837,25.041v-5.345h29.417v5.347c16.362-3.437,30.675-12.491,40.837-25.04v-7.984l0.951-0.951c2.883-2.883,9.729-25.135,9.729-30.118v-1.81l5.16-6.96zm-25.54-37.26c0.059,0.121,0.468,0.972,1.063,2.211v20.298c-0.428,0.257-0.692,0.417-0.692,0.417l-20.962,6.877-0.783,0.423-23.128-16.396v-24.478l17.162-8.385c0.821,0.153,1.382,0.255,1.491,0.273,0.48,0.348,25.32,18.37,25.85,18.76zm-65.86-18.746c0.136-0.021,0.754-0.113,1.607-0.242l17.068,8.337v24.478l-23.147,16.406-0.609-0.383s-20.067-6.615-20.938-6.904c-0.095-0.147-0.42-0.659-0.875-1.365v-19.728c0.57-1.014,0.966-1.72,1.03-1.83,0.456-0.34,25.343-18.4,25.863-18.776zm-43.521,64.756v-1.642l15.726-19.203,0.021,0.034s21.227,6.998,21.534,7.098c0.05,0.032,0.546,0.344,1.311,0.827l9.298,25.909c-0.194,1.185-0.323,1.97-0.341,2.083-0.357,0.498-14.214,19.807-14.214,19.807l-0.052,0.244-22.803-5.398-1.542-1.542c-2.179-2.18-8.946-23.54-8.946-28.22zm49.191,56.06c-0.126-0.073-0.89-0.517-1.988-1.157l-11.575-17.838c0.121-0.57,0.202-0.953,0.221-1.043,0.32-0.446,14.253-19.859,14.253-19.859l0.087-0.527h26.66l0.161,0.588,14.376,20.031s0.098,0.199,0.249,0.514l-11.821,18.216c-1.085,0.606-1.812,1.014-1.923,1.076h-28.7zm68.94-27.84l-1.542,1.542-22.768,5.391-0.135-0.273s-13.933-19.441-14.208-19.827c-0.021-0.074-0.187-0.691-0.441-1.623l9.495-26.466c0.822-0.444,1.32-0.714,1.32-0.714l21.016-6.906,0.42-0.249,15.783,19.268v1.642c0.01,4.69-6.76,26.05-8.93,28.22z"/>
</svg>